<?xml version="1.0" encoding="UTF-8" standalone="no"?>
<!-- Created with Inkscape (http://www.inkscape.org/) -->

<svg
   version="1.1"
   id="svg1"
   width="694"
   height="253.2"
   viewBox="0 0 694 253.19999"
   sodipodi:docname="mqt-logo-dark.svg"
   inkscape:version="1.4 (e7c3feb1, 2024-10-09)"
   xmlns:inkscape="http://www.inkscape.org/namespaces/inkscape"
   xmlns:sodipodi="http://sodipodi.sourceforge.net/DTD/sodipodi-0.dtd"
   xmlns="http://www.w3.org/2000/svg"
   xmlns:svg="http://www.w3.org/2000/svg">
  <defs
     id="defs1">
    <clipPath
       clipPathUnits="userSpaceOnUse"
       id="clipPath2">
      <path
         d="M 0,402.416 H 645.51 V 0 H 0 Z"
         transform="translate(-194.7624,-235.4067)"
         id="path2" />
    </clipPath>
    <clipPath
       clipPathUnits="userSpaceOnUse"
       id="clipPath4">
      <path
         d="M 0,402.416 H 645.51 V 0 H 0 Z"
         transform="translate(-194.93601,-193.6839)"
         id="path4" />
    </clipPath>
    <clipPath
       clipPathUnits="userSpaceOnUse"
       id="clipPath6">
      <path
         d="M 0,402.416 H 645.51 V 0 H 0 Z"
         transform="translate(-225.9016,-175.13891)"
         id="path6" />
    </clipPath>
    <clipPath
       clipPathUnits="userSpaceOnUse"
       id="clipPath8">
      <path
         d="M 0,402.416 H 645.51 V 0 H 0 Z"
         transform="translate(-433.04191,-175.0664)"
         id="path8" />
    </clipPath>
    <clipPath
       clipPathUnits="userSpaceOnUse"
       id="clipPath10">
      <path
         d="M 0,402.416 H 645.51 V 0 H 0 Z"
         transform="translate(-249.69231,-176.0342)"
         id="path10" />
    </clipPath>
    <clipPath
       clipPathUnits="userSpaceOnUse"
       id="clipPath12">
      <path
         d="M 0,402.416 H 645.51 V 0 H 0 Z"
         transform="translate(-212.98311,-169.2153)"
         id="path12" />
    </clipPath>
    <clipPath
       clipPathUnits="userSpaceOnUse"
       id="clipPath14">
      <path
         d="M 0,402.416 H 645.51 V 0 H 0 Z"
         transform="translate(-319.51051,-176.10941)"
         id="path14" />
    </clipPath>
    <clipPath
       clipPathUnits="userSpaceOnUse"
       id="clipPath16">
      <path
         d="M 0,402.416 H 645.51 V 0 H 0 Z"
         transform="translate(-363.31951,-228.6705)"
         id="path16" />
    </clipPath>
    <clipPath
       clipPathUnits="userSpaceOnUse"
       id="clipPath18">
      <path
         d="M 0,402.416 H 645.51 V 0 H 0 Z"
         transform="translate(-475.78041,-176.10941)"
         id="path18" />
    </clipPath>
    <clipPath
       clipPathUnits="userSpaceOnUse"
       id="clipPath20">
      <path
         d="M 0,402.416 H 645.51 V 0 H 0 Z"
         transform="translate(-248.4928,-143.7653)"
         id="path20" />
    </clipPath>
    <clipPath
       clipPathUnits="userSpaceOnUse"
       id="clipPath22">
      <path
         d="M 0,402.416 H 645.51 V 0 H 0 Z"
         transform="translate(-297.35901,-151.05461)"
         id="path22" />
    </clipPath>
    <clipPath
       clipPathUnits="userSpaceOnUse"
       id="clipPath24">
      <path
         d="M 0,402.416 H 645.51 V 0 H 0 Z"
         transform="translate(-462.88541,-116.20691)"
         id="path24" />
    </clipPath>
    <clipPath
       clipPathUnits="userSpaceOnUse"
       id="clipPath26">
      <path
         d="M 0,402.416 H 645.51 V 0 H 0 Z"
         transform="translate(-502.84531,-107.2782)"
         id="path26" />
    </clipPath>
    <clipPath
       clipPathUnits="userSpaceOnUse"
       id="clipPath28">
      <path
         d="M 0,402.416 H 645.51 V 0 H 0 Z"
         id="path28" />
    </clipPath>
    <clipPath
       clipPathUnits="userSpaceOnUse"
       id="clipPath30">
      <path
         d="M 0,402.416 H 645.51 V 0 H 0 Z"
         transform="translate(-582.98011,-151.05461)"
         id="path30" />
    </clipPath>
    <clipPath
       clipPathUnits="userSpaceOnUse"
       id="clipPath32">
      <path
         d="M 0,402.416 H 645.51 V 0 H 0 Z"
         transform="translate(-352.94301,-144.25091)"
         id="path32" />
    </clipPath>
    <clipPath
       clipPathUnits="userSpaceOnUse"
       id="clipPath34">
      <path
         d="M 0,402.416 H 645.51 V 0 H 0 Z"
         transform="translate(-413.76431,-144.25091)"
         id="path34" />
    </clipPath>
    <clipPath
       clipPathUnits="userSpaceOnUse"
       id="clipPath36">
      <path
         d="M 0,402.416 H 645.51 V 0 H 0 Z"
         transform="translate(-270.19921,-276.2547)"
         id="path36" />
    </clipPath>
    <clipPath
       clipPathUnits="userSpaceOnUse"
       id="clipPath38">
      <path
         d="M 0,402.416 H 645.51 V 0 H 0 Z"
         transform="translate(-290.62501,-244.26251)"
         id="path38" />
    </clipPath>
    <clipPath
       clipPathUnits="userSpaceOnUse"
       id="clipPath40">
      <path
         d="M 0,402.416 H 645.51 V 0 H 0 Z"
         transform="translate(-337.71091,-244.8216)"
         id="path40" />
    </clipPath>
    <clipPath
       clipPathUnits="userSpaceOnUse"
       id="clipPath42">
      <path
         d="M 0,402.416 H 645.51 V 0 H 0 Z"
         id="path42" />
    </clipPath>
    <clipPath
       clipPathUnits="userSpaceOnUse"
       id="clipPath44">
      <path
         d="M 0,402.416 H 645.51 V 0 H 0 Z"
         transform="translate(-387.80371,-252.56181)"
         id="path44" />
    </clipPath>
    <clipPath
       clipPathUnits="userSpaceOnUse"
       id="clipPath46">
      <path
         d="M 0,402.416 H 645.51 V 0 H 0 Z"
         transform="translate(-420.01071,-276.29771)"
         id="path46" />
    </clipPath>
  </defs>
  <sodipodi:namedview
     id="namedview1"
     pagecolor="#1a1a1a"
     bordercolor="#eeeeee"
     borderopacity="1"
     inkscape:showpageshadow="0"
     inkscape:pageopacity="0"
     inkscape:pagecheckerboard="0"
     inkscape:deskcolor="#505050"
     inkscape:zoom="0.49355974"
     inkscape:cx="453.84577"
     inkscape:cy="306.95372"
     inkscape:window-width="1512"
     inkscape:window-height="852"
     inkscape:window-x="0"
     inkscape:window-y="38"
     inkscape:window-maximized="0"
     inkscape:current-layer="g1">
    <inkscape:page
       x="0"
       y="0"
       inkscape:label="1"
       id="page1"
       width="694"
       height="253.2"
       margin="141.69333 83.373337 141.69333 83.372536"
       bleed="0" />
  </sodipodi:namedview>
  <g
     id="g1"
     inkscape:groupmode="layer"
     inkscape:label="1">
    <path
       id="path1"
       d="m 0,0 c -14.603,4.579 -30.082,6.987 -45.788,6.987 -28.224,0 -55.734,-7.739 -78.696,-21.972 v -7.717 c 22.601,15.001 50.251,23.217 78.696,23.217 15.745,0 31.247,-2.519 45.788,-7.305 z"
       style="fill:#3171c1;fill-opacity:1;fill-rule:nonzero;stroke:none"
       transform="matrix(1.3333333,0,0,-1.3333333,176.31106,80.98613)"
       clip-path="url(#clipPath2)" />
    <path
       id="path3"
       d="m 0,0 c -14.591,-4.823 -30.154,-7.361 -45.962,-7.361 -28.445,0 -56.095,8.215 -78.696,23.216 V 8.138 c 22.963,-14.232 50.472,-21.972 78.696,-21.972 16.207,0 32.174,2.561 47.183,7.429 C 0.618,-4.383 0.21,-2.249 0,0"
       style="fill:#3171c1;fill-opacity:1;fill-rule:nonzero;stroke:none"
       transform="matrix(1.3333333,0,0,-1.3333333,176.54253,136.61653)"
       clip-path="url(#clipPath4)" />
    <path
       id="path5"
       d="m 0,0 c -3.407,0 -6.501,0.528 -9.282,1.584 -2.783,1.054 -5.157,2.541 -7.123,4.461 -1.968,1.918 -3.49,4.244 -4.569,6.979 -1.08,2.734 -1.619,5.779 -1.619,9.137 v 31.371 h 10.073 v -31.32 c 0,-2.635 0.431,-4.814 1.296,-6.537 0.863,-1.724 1.93,-3.09 3.201,-4.094 1.271,-1.007 2.637,-1.702 4.101,-2.084 1.463,-0.383 2.77,-0.575 3.922,-0.575 1.151,0 2.457,0.192 3.922,0.575 1.462,0.382 2.829,1.077 4.101,2.084 1.27,1.004 2.337,2.37 3.201,4.094 0.864,1.723 1.296,3.902 1.296,6.537 v 31.32 H 22.592 V 22.161 c 0,-3.358 -0.528,-6.403 -1.583,-9.137 C 19.954,10.289 18.443,7.963 16.476,6.045 14.509,4.125 12.135,2.638 9.354,1.584 6.571,0.528 3.453,0 0,0"
       style="fill:#ffffff;fill-opacity:1;fill-rule:nonzero;stroke:none"
       transform="matrix(1.3333333,0,0,-1.3333333,217.82999,161.34319)"
       clip-path="url(#clipPath6)" />
    <path
       id="path7"
       d="m 0,0 c -3.407,0 -6.501,0.528 -9.283,1.583 -2.782,1.055 -5.156,2.542 -7.123,4.461 -1.967,1.918 -3.489,4.245 -4.567,6.979 -1.081,2.735 -1.62,5.78 -1.62,9.138 v 31.371 h 10.072 v -31.32 c 0,-2.635 0.433,-4.814 1.296,-6.538 0.864,-1.724 1.931,-3.089 3.201,-4.094 1.271,-1.007 2.638,-1.701 4.102,-2.084 C -2.459,9.113 -1.151,8.922 0,8.922 c 1.151,0 2.457,0.191 3.922,0.574 1.462,0.383 2.829,1.077 4.1,2.084 1.27,1.005 2.339,2.37 3.202,4.094 0.864,1.724 1.295,3.903 1.295,6.538 v 31.32 H 22.593 V 22.161 c 0,-3.358 -0.53,-6.403 -1.584,-9.138 C 19.954,10.289 18.444,7.962 16.476,6.044 14.509,4.125 12.135,2.638 9.353,1.583 6.571,0.528 3.453,0 0,0"
       style="fill:#ffffff;fill-opacity:1;fill-rule:nonzero;stroke:none"
       transform="matrix(1.3333333,0,0,-1.3333333,494.01706,161.43986)"
       clip-path="url(#clipPath8)" />
    <path
       id="path9"
       d="m 0,0 27.077,52.712 h 1.041 L 54.967,0.074 H 44.011 L 27.582,32.994 11.104,0.035 C 11.104,0.035 0,0.131 0,0"
       style="fill:#ffffff;fill-opacity:1;fill-rule:nonzero;stroke:none"
       transform="matrix(1.3333333,0,0,-1.3333333,249.55093,160.14946)"
       clip-path="url(#clipPath10)" />
    <path
       id="path11"
       d="m 0,0 c -0.877,0.332 -1.717,0.704 -2.535,1.099 -13.393,-20.572 -36.571,-34.216 -62.895,-34.216 -41.368,0 -75.024,33.656 -75.024,75.024 0,41.368 33.656,75.024 75.024,75.024 32.275,0 59.822,-20.499 70.383,-49.152 h 10.581 c -10.975,34.265 -43.104,59.152 -80.964,59.152 -46.882,0 -85.024,-38.142 -85.024,-85.024 0,-46.883 38.142,-85.024 85.024,-85.024 30.867,0 57.94,16.537 72.838,41.213 C 7.1,-1.847 6.803,-1.761 6.498,-1.695 4.21,-1.335 2.042,-0.775 0,0"
       style="fill:#ffffff;fill-opacity:1;fill-rule:nonzero;stroke:none"
       transform="matrix(1.3333333,0,0,-1.3333333,200.60533,169.24133)"
       clip-path="url(#clipPath12)" />
    <path
       id="path13"
       d="M 0,0 V 31.264 L 34.573,0 h 1.115 V 52.561 H 25.615 V 20.759 L -8.994,52.561 h -1.08 V 0 Z"
       style="fill:#ffffff;fill-opacity:1;fill-rule:nonzero;stroke:none"
       transform="matrix(1.3333333,0,0,-1.3333333,342.64186,160.04919)"
       clip-path="url(#clipPath14)" />
    <path
       id="path15"
       d="M 0,0 V -8.922 H 15.111 V -52.561 H 25.185 V -8.922 H 40.222 V 0 Z"
       style="fill:#ffffff;fill-opacity:1;fill-rule:nonzero;stroke:none"
       transform="matrix(1.3333333,0,0,-1.3333333,401.05386,89.96773)"
       clip-path="url(#clipPath16)" />
    <path
       id="path17"
       d="M 0,0 V 26.514 L 16.406,6.728 32.882,26.514 V 0 H 42.955 V 52.489 H 42.309 L 16.406,22.126 -9.425,52.489 h -0.648 V 0 Z"
       style="fill:#ffffff;fill-opacity:1;fill-rule:nonzero;stroke:none"
       transform="matrix(1.3333333,0,0,-1.3333333,551.00173,160.04919)"
       clip-path="url(#clipPath18)" />
    <path
       id="path19"
       d="m 0,0 c -2.088,-0.259 -4.216,-0.451 -6.325,-0.573 -25.196,-1.446 -49.461,7.013 -68.304,23.814 -18.843,16.8 -30.015,39.933 -31.46,65.137 -1.083,18.909 3.443,37.47 13.089,53.676 l -8.593,5.115 c -10.671,-17.927 -15.677,-38.454 -14.479,-59.363 1.596,-27.871 13.951,-53.451 34.788,-72.029 19.309,-17.216 43.756,-26.508 69.417,-26.508 2.03,0 4.071,0.058 6.114,0.175 1.917,0.11 3.843,0.286 5.753,0.5 z"
       style="fill:#ffffff;fill-opacity:1;fill-rule:nonzero;stroke:none"
       transform="matrix(1.3333333,0,0,-1.3333333,247.95159,203.17466)"
       clip-path="url(#clipPath20)" />
    <path
       id="path21"
       d="m 0,0 h -15.048 v -43.776 h -10.08 V 0 H -40.249 V 8.928 H 0 Z"
       style="fill:#3171c1;fill-opacity:1;fill-rule:nonzero;stroke:none"
       transform="matrix(1.3333333,0,0,-1.3333333,313.10653,193.45559)"
       clip-path="url(#clipPath22)" />
    <path
       id="path23"
       d="m 0,0 v -8.929 h -37.944 v 52.704 h 10.08 V 0 Z"
       style="fill:#3171c1;fill-opacity:1;fill-rule:nonzero;stroke:none"
       transform="matrix(1.3333333,0,0,-1.3333333,533.80839,239.91919)"
       clip-path="url(#clipPath24)" />
    <path
       id="path25"
       d="M 0,0 -22.104,23.977 V 0 h -10.081 v 52.704 h 10.081 V 25.92 L -1.152,52.632 H 11.231 L -10.44,25.416 13.319,0 Z"
       style="fill:#3171c1;fill-opacity:1;fill-rule:nonzero;stroke:none"
       transform="matrix(1.3333333,0,0,-1.3333333,587.08826,251.82413)"
       clip-path="url(#clipPath26)" />
    <path
       id="path27"
       d="M 535.1,107.278 H 525.02 V 159.91 H 535.1 Z"
       style="fill:#3171c1;fill-opacity:1;fill-rule:nonzero;stroke:none"
       transform="matrix(1.3333333,0,0,-1.3333333,-83.372142,394.86173)"
       clip-path="url(#clipPath28)" />
    <path
       id="path29"
       d="m 0,0 h -15.048 v -43.776 h -10.08 V 0 h -15.12 V 8.928 H 0 Z"
       style="fill:#3171c1;fill-opacity:1;fill-rule:nonzero;stroke:none"
       transform="matrix(1.3333333,0,0,-1.3333333,693.93466,193.45559)"
       clip-path="url(#clipPath30)" />
    <path
       id="path31"
       d="m 0,0 c -1.44,3.335 -3.396,6.239 -5.868,8.712 -2.473,2.472 -5.364,4.428 -8.676,5.867 -3.312,1.441 -6.865,2.16 -10.656,2.16 -2.612,0 -5.117,-0.358 -7.518,-1.059 l 4.263,-8.712 c 1.063,0.22 2.158,0.34 3.291,0.34 2.394,0 4.634,-0.494 6.718,-1.476 2.083,-0.984 3.903,-2.293 5.46,-3.925 1.557,-1.632 2.79,-3.54 3.7,-5.723 0.91,-2.185 1.366,-4.454 1.366,-6.804 0,-2.401 -0.456,-4.681 -1.366,-6.84 -0.91,-2.16 -2.143,-4.068 -3.7,-5.725 -1.557,-1.656 -3.377,-2.976 -5.46,-3.96 -2.084,-0.984 -4.324,-1.475 -6.718,-1.475 -2.396,0 -4.635,0.491 -6.719,1.475 -2.083,0.984 -3.903,2.304 -5.46,3.96 -1.557,1.657 -2.79,3.565 -3.7,5.725 -0.91,2.159 -1.365,4.439 -1.365,6.84 0,2.35 0.455,4.619 1.365,6.804 0.91,2.183 2.143,4.091 3.7,5.723 0.16,0.167 0.334,0.316 0.499,0.477 l -4.42,9.03 C -42.391,10.589 -43.469,9.703 -44.46,8.712 -46.933,6.239 -48.888,3.335 -50.328,0 c -1.44,-3.337 -2.16,-6.876 -2.16,-10.62 0,-3.793 0.72,-7.345 2.16,-10.656 1.44,-3.313 3.395,-6.204 5.868,-8.676 2.472,-2.473 5.364,-4.429 8.676,-5.868 3.312,-1.441 6.84,-2.16 10.584,-2.16 3.791,0 7.344,0.719 10.656,2.16 3.312,1.439 6.203,3.395 8.676,5.868 2.472,2.472 4.428,5.363 5.868,8.676 1.44,3.311 2.16,6.863 2.16,10.656 C 2.16,-6.876 1.44,-3.337 0,0"
       style="fill:#3171c1;fill-opacity:1;fill-rule:nonzero;stroke:none"
       transform="matrix(1.3333333,0,0,-1.3333333,387.21853,202.52719)"
       clip-path="url(#clipPath32)" />
    <path
       id="path33"
       d="m 0,0 c -1.44,3.335 -3.396,6.239 -5.868,8.712 -2.473,2.472 -5.364,4.428 -8.676,5.867 -3.312,1.441 -6.865,2.16 -10.656,2.16 -2.612,0 -5.117,-0.358 -7.518,-1.059 l 4.263,-8.712 c 1.063,0.22 2.158,0.34 3.291,0.34 2.394,0 4.634,-0.494 6.718,-1.476 2.083,-0.984 3.903,-2.293 5.46,-3.925 1.557,-1.632 2.79,-3.54 3.7,-5.723 0.91,-2.185 1.366,-4.454 1.366,-6.804 0,-2.401 -0.456,-4.681 -1.366,-6.84 -0.91,-2.16 -2.143,-4.068 -3.7,-5.725 -1.557,-1.656 -3.377,-2.976 -5.46,-3.96 -2.084,-0.984 -4.324,-1.475 -6.718,-1.475 -2.396,0 -4.635,0.491 -6.719,1.475 -2.083,0.984 -3.903,2.304 -5.46,3.96 -1.557,1.657 -2.79,3.565 -3.7,5.725 -0.91,2.159 -1.365,4.439 -1.365,6.84 0,2.35 0.455,4.619 1.365,6.804 0.91,2.183 2.143,4.091 3.7,5.723 0.16,0.167 0.334,0.316 0.499,0.477 l -4.42,9.03 C -42.391,10.589 -43.469,9.703 -44.46,8.712 -46.933,6.239 -48.888,3.335 -50.328,0 c -1.44,-3.337 -2.16,-6.876 -2.16,-10.62 0,-3.793 0.72,-7.345 2.16,-10.656 1.44,-3.313 3.395,-6.204 5.868,-8.676 2.472,-2.473 5.364,-4.429 8.676,-5.868 3.312,-1.441 6.84,-2.16 10.584,-2.16 3.791,0 7.344,0.719 10.656,2.16 3.312,1.439 6.203,3.395 8.676,5.868 2.472,2.472 4.428,5.363 5.868,8.676 1.44,3.311 2.16,6.863 2.16,10.656 C 2.16,-6.876 1.44,-3.337 0,0"
       style="fill:#3171c1;fill-opacity:1;fill-rule:nonzero;stroke:none"
       transform="matrix(1.3333333,0,0,-1.3333333,468.31359,202.52719)"
       clip-path="url(#clipPath34)" />
    <path
       id="path35"
       d="m 0,0 v -31.433 h -6.02 v 15.91 l -9.847,-11.825 -9.804,11.825 v -15.91 H -31.69 V 0 h 0.386 L -15.867,-18.146 -0.387,0 Z"
       style="fill:#3171c1;fill-opacity:1;fill-rule:nonzero;stroke:none"
       transform="matrix(1.3333333,0,0,-1.3333333,276.89346,26.52213)"
       clip-path="url(#clipPath36)" />
    <path
       id="path37"
       d="m 0,0 c -2.036,0 -3.885,0.316 -5.548,0.946 -1.662,0.63 -3.081,1.519 -4.257,2.666 -1.175,1.146 -2.085,2.537 -2.73,4.171 -0.645,1.634 -0.967,3.454 -0.967,5.461 v 18.748 h 6.02 V 13.274 c 0,-1.574 0.257,-2.876 0.774,-3.907 C -6.192,8.337 -5.555,7.521 -4.795,6.92 -4.036,6.319 -3.219,5.904 -2.344,5.675 -1.47,5.446 -0.688,5.332 0,5.332 c 0.687,0 1.469,0.114 2.343,0.343 0.874,0.229 1.691,0.644 2.451,1.245 0.76,0.601 1.397,1.417 1.914,2.447 0.516,1.031 0.773,2.333 0.773,3.907 v 18.718 h 6.021 V 13.244 c 0,-2.007 -0.316,-3.827 -0.946,-5.461 C 11.925,6.149 11.021,4.758 9.847,3.612 8.671,2.465 7.252,1.576 5.59,0.946 3.927,0.316 2.063,0 0,0"
       style="fill:#3171c1;fill-opacity:1;fill-rule:nonzero;stroke:none"
       transform="matrix(1.3333333,0,0,-1.3333333,304.12786,69.17839)"
       clip-path="url(#clipPath38)" />
    <path
       id="path39"
       d="M 0,0 -20.685,18.705 V 0 h -6.019 v 31.433 h 0.644 L -5.377,12.427 V 31.433 H 0.644 V 0 Z"
       style="fill:#3171c1;fill-opacity:1;fill-rule:nonzero;stroke:none"
       transform="matrix(1.3333333,0,0,-1.3333333,366.90906,68.43293)"
       clip-path="url(#clipPath40)" />
    <path
       id="path41"
       d="m 352.114,244.822 h -6.021 v 31.433 h 6.021 z"
       style="fill:#3171c1;fill-opacity:1;fill-rule:nonzero;stroke:none"
       transform="matrix(1.3333333,0,0,-1.3333333,-83.372142,394.86173)"
       clip-path="url(#clipPath42)" />
    <path
       id="path43"
       d="m 0,0 c -0.688,-1.262 -1.534,-2.401 -2.537,-3.419 -1.004,-1.018 -2.114,-1.892 -3.332,-2.623 -1.219,-0.731 -2.537,-1.297 -3.956,-1.698 -1.419,-0.401 -2.889,-0.602 -4.408,-0.602 -2.236,0 -4.343,0.43 -6.321,1.29 -1.978,0.86 -3.706,2.028 -5.181,3.504 -1.477,1.476 -2.645,3.204 -3.505,5.182 -0.86,1.978 -1.29,4.085 -1.29,6.321 0,2.236 0.43,4.343 1.29,6.321 0.86,1.978 2.028,3.704 3.505,5.181 1.475,1.477 3.203,2.645 5.181,3.505 1.978,0.86 4.085,1.29 6.321,1.29 1.519,0 2.989,-0.201 4.408,-0.602 1.419,-0.402 2.737,-0.968 3.956,-1.699 1.218,-0.731 2.328,-1.605 3.332,-2.623 1.003,-1.017 1.849,-2.143 2.537,-3.375 l -5.633,-2.279 c -0.459,0.688 -0.996,1.333 -1.612,1.935 -0.617,0.602 -1.298,1.132 -2.043,1.591 -0.746,0.458 -1.534,0.817 -2.365,1.075 -0.831,0.258 -1.692,0.387 -2.58,0.387 -1.434,0 -2.774,-0.294 -4.021,-0.882 -1.247,-0.588 -2.329,-1.369 -3.246,-2.343 -0.918,-0.975 -1.648,-2.115 -2.193,-3.419 -0.545,-1.305 -0.817,-2.659 -0.817,-4.063 0,-1.434 0.272,-2.795 0.817,-4.085 0.545,-1.29 1.275,-2.423 2.193,-3.397 0.917,-0.975 1.999,-1.757 3.246,-2.344 1.247,-0.587 2.587,-0.881 4.021,-0.881 0.888,0 1.749,0.129 2.58,0.387 0.831,0.258 1.619,0.616 2.365,1.075 0.745,0.458 1.426,0.996 2.043,1.612 0.616,0.616 1.153,1.269 1.612,1.957 z"
       style="fill:#3171c1;fill-opacity:1;fill-rule:nonzero;stroke:none"
       transform="matrix(1.3333333,0,0,-1.3333333,433.69946,58.11266)"
       clip-path="url(#clipPath44)" />
    <path
       id="path45"
       d="m 0,0 v -31.476 h -6.02 v 12.513 h -15.523 v -12.513 h -6.019 V 0 h 6.019 V -13.631 H -6.02 V 0 Z"
       style="fill:#3171c1;fill-opacity:1;fill-rule:nonzero;stroke:none"
       transform="matrix(1.3333333,0,0,-1.3333333,476.64213,26.46479)"
       clip-path="url(#clipPath46)" />
  </g>
</svg>
