<!--
 Copyright (c) 2023 - 2026 Chair for Design Automation, TUM
 Copyright (c) 2025 - 2026 Munich Quantum Software Company GmbH
 All rights reserved.

 SPDX-License-Identifier: MIT

 Licensed under the MIT License
-->

<svg xmlns="http://www.w3.org/2000/svg" xmlns:xlink="http://www.w3.org/1999/xlink" width="329" zoomAndPan="magnify" viewBox="0 0 246.75 189.750001" height="253" preserveAspectRatio="xMidYMid meet" version="1.0"><defs><g/><clipPath id="e9854738ee"><path d="M 0.0390625 0.0976562 L 184.875 0.0976562 L 184.875 189.402344 L 0.0390625 189.402344 Z M 0.0390625 0.0976562 " clip-rule="nonzero"/></clipPath><clipPath id="a8a687f9df"><path d="M 77 5 L 206.765625 5 L 206.765625 182 L 77 182 Z M 77 5 " clip-rule="nonzero"/></clipPath><clipPath id="86d64c918e"><rect x="0" width="56" y="0" height="107"/></clipPath></defs><path stroke-linecap="butt" transform="matrix(1.111686, 0, 0, 1.113288, 10.220012, 391.864546)" fill-opacity="1" fill="#1b8bff" fill-rule="nonzero" stroke-linejoin="miter" d="M 123.066444 -291.171217 C 108.47009 -295.753644 92.991769 -298.160646 77.278024 -298.160646 C 49.062153 -298.160646 21.549044 -290.420344 -1.420713 -276.192364 L -1.420713 -268.473115 C 21.180094 -283.47302 48.830242 -291.690512 77.278024 -291.690512 C 93.01988 -291.690512 108.529824 -289.171229 123.066444 -284.388804 Z M 123.066444 -291.171217 " stroke="#1b8bff" stroke-width="1" stroke-opacity="1" stroke-miterlimit="4"/><path stroke-linecap="butt" transform="matrix(1.111686, 0, 0, 1.113288, 10.220012, 391.864546)" fill-opacity="1" fill="#1b8bff" fill-rule="nonzero" stroke-linejoin="miter" d="M 123.249162 -249.452183 C 108.659835 -244.631161 93.100697 -242.090827 77.288565 -242.090827 C 48.83727 -242.090827 21.190635 -250.297792 -1.410172 -265.311732 L -1.410172 -257.592483 C 21.549044 -243.360994 49.062153 -235.620692 77.288565 -235.620692 C 93.501271 -235.620692 109.460983 -238.182079 124.471967 -243.052224 C 123.860565 -245.059229 123.459991 -247.199566 123.249162 -249.452183 Z M 123.249162 -249.452183 " stroke="#1b8bff" stroke-width="1" stroke-opacity="1" stroke-miterlimit="4"/><g clip-path="url(#e9854738ee)"><path fill="#ffffff" d="M 167.289062 141.398438 C 166.3125 141.027344 165.375 140.613281 164.476562 140.171875 C 149.589844 163.070312 123.820312 178.269531 94.550781 178.269531 C 48.5625 178.269531 11.152344 140.796875 11.152344 94.75 C 11.152344 48.703125 48.570312 11.230469 94.550781 11.230469 C 130.425781 11.230469 161.054688 34.054688 172.792969 65.949219 L 184.554688 65.949219 C 172.347656 27.808594 136.640625 0.0976562 94.550781 0.0976562 C 42.4375 0.0976562 0.0390625 42.558594 0.0390625 94.75 C 0.0390625 146.941406 42.4375 189.402344 94.550781 189.402344 C 128.871094 189.402344 158.964844 170.988281 175.527344 143.523438 C 175.183594 143.457031 174.851562 143.367188 174.515625 143.289062 C 171.96875 142.886719 169.558594 142.265625 167.289062 141.398438 Z M 167.289062 141.398438 " fill-opacity="1" fill-rule="nonzero"/></g><g clip-path="url(#a8a687f9df)"><path fill="#ffffff" d="M 206.765625 169.726562 C 204.445312 170.019531 202.074219 170.230469 199.726562 170.363281 C 171.714844 171.980469 144.746094 162.5625 123.800781 143.859375 C 102.855469 125.152344 90.429688 99.402344 88.828125 71.335938 C 87.625 50.285156 92.652344 29.625 103.378906 11.578125 L 93.832031 5.875 C 81.96875 25.835938 76.398438 48.679688 77.730469 71.957031 C 79.511719 102.988281 93.242188 131.464844 116.40625 152.148438 C 137.875 171.320312 165.054688 181.664062 193.582031 181.664062 C 195.835938 181.664062 198.105469 181.597656 200.371094 181.464844 C 202.507812 181.339844 204.644531 181.136719 206.765625 180.90625 Z M 206.765625 169.726562 " fill-opacity="1" fill-rule="nonzero"/></g><g transform="matrix(1, 0, 0, 1, 151, 46)"><g clip-path="url(#86d64c918e)"><g fill="#1b8bff" fill-opacity="1"><g transform="translate(1.204184, 83.582115)"><g><path d="M 51.5625 -9.03125 C 51.863281 -8.570312 52.015625 -8.1875 52.015625 -7.875 C 52.015625 -7.625 51.9375 -7.367188 51.78125 -7.109375 C 51.632812 -6.859375 51.382812 -6.578125 51.03125 -6.265625 C 48.269531 -3.972656 45.179688 -2.203125 41.765625 -0.953125 C 38.347656 0.296875 34.78125 0.921875 31.0625 0.921875 C 25.851562 0.921875 21.117188 -0.265625 16.859375 -2.640625 C 12.609375 -5.015625 9.257812 -8.289062 6.8125 -12.46875 C 4.363281 -16.65625 3.140625 -21.347656 3.140625 -26.546875 C 3.140625 -31.847656 4.375 -36.613281 6.84375 -40.84375 C 9.320312 -45.082031 12.710938 -48.410156 17.015625 -50.828125 C 21.328125 -53.253906 26.1875 -54.46875 31.59375 -54.46875 C 35.3125 -54.46875 38.828125 -53.828125 42.140625 -52.546875 C 45.460938 -51.273438 48.472656 -49.546875 51.171875 -47.359375 C 51.429688 -47.097656 51.632812 -46.851562 51.78125 -46.625 C 51.9375 -46.394531 52.015625 -46.175781 52.015625 -45.96875 C 52.015625 -45.613281 51.835938 -45.179688 51.484375 -44.671875 L 48.125 -39.9375 C 47.664062 -39.320312 47.203125 -39.015625 46.734375 -39.015625 C 46.378906 -39.015625 45.921875 -39.21875 45.359375 -39.625 C 43.316406 -41.15625 41.125 -42.351562 38.78125 -43.21875 C 36.4375 -44.082031 33.988281 -44.515625 31.4375 -44.515625 C 28.226562 -44.515625 25.3125 -43.765625 22.6875 -42.265625 C 20.0625 -40.765625 17.992188 -38.660156 16.484375 -35.953125 C 14.984375 -33.253906 14.234375 -30.171875 14.234375 -26.703125 C 14.234375 -23.335938 14.984375 -20.3125 16.484375 -17.625 C 17.992188 -14.945312 20.046875 -12.84375 22.640625 -11.3125 C 25.242188 -9.789062 28.175781 -9.03125 31.4375 -9.03125 C 36.695312 -9.03125 41.390625 -10.6875 45.515625 -14 C 46.078125 -14.457031 46.5625 -14.6875 46.96875 -14.6875 C 47.375 -14.6875 47.78125 -14.40625 48.1875 -13.84375 Z M 51.5625 -9.03125 "/></g></g></g></g></g></svg>
