<!--
 Copyright (c) 2023 - 2026 Chair for Design Automation, TUM
 Copyright (c) 2025 - 2026 Munich Quantum Software Company GmbH
 All rights reserved.

 SPDX-License-Identifier: MIT

 Licensed under the MIT License
-->

<svg xmlns="http://www.w3.org/2000/svg" xmlns:xlink="http://www.w3.org/1999/xlink" width="710" zoomAndPan="magnify" viewBox="0 0 532.5 243.75" height="325" preserveAspectRatio="xMidYMid meet" version="1.0"><defs><g/><clipPath id="d1d9723448"><path d="M 1 0 L 185 0 L 185 188.058594 L 1 188.058594 Z M 1 0 " clip-rule="nonzero"/></clipPath></defs><path stroke-linecap="butt" transform="matrix(1.104735, 0, 0, 1.105952, 11.386487, 389.185808)" fill-opacity="1" fill="#1b8bff" fill-rule="nonzero" stroke-linejoin="miter" d="M 123.071297 -291.171603 C 108.4715 -295.752641 92.991261 -298.161482 77.281187 -298.161482 C 49.061042 -298.161482 21.548081 -290.422814 -1.421228 -276.192283 L -1.421228 -268.471274 C 21.180346 -283.471787 48.831208 -291.690811 77.281187 -291.690811 C 93.019548 -291.690811 108.528075 -289.172477 123.071297 -284.390114 Z M 123.071297 -291.171603 " stroke="#1b8bff" stroke-width="1" stroke-opacity="1" stroke-miterlimit="4"/><path stroke-linecap="butt" transform="matrix(1.104735, 0, 0, 1.105952, 11.386487, 389.185808)" fill-opacity="1" fill="#1b8bff" fill-rule="nonzero" stroke-linejoin="miter" d="M 123.248093 -249.451316 C 108.658904 -244.630101 93.100874 -242.090575 77.288258 -242.090575 C 48.83828 -242.090575 21.190954 -250.302534 -1.410621 -265.310111 L -1.410621 -257.592635 C 21.548081 -243.362104 49.061042 -235.619904 77.288258 -235.619904 C 93.500433 -235.619904 109.458021 -238.180622 124.471519 -243.051286 C 123.859806 -245.061008 123.460248 -247.201416 123.248093 -249.451316 Z M 123.248093 -249.451316 " stroke="#1b8bff" stroke-width="1" stroke-opacity="1" stroke-miterlimit="4"/><path fill="#ffffff" d="M 181.746094 133.820312 C 177.980469 133.820312 174.566406 133.234375 171.496094 132.074219 C 168.425781 130.910156 165.796875 129.265625 163.628906 127.140625 C 161.453125 125.015625 159.773438 122.449219 158.582031 119.421875 C 157.386719 116.402344 156.792969 113.027344 156.792969 109.3125 L 156.792969 74.617188 L 167.917969 74.617188 L 167.917969 109.257812 C 167.917969 112.164062 168.390625 114.578125 169.351562 116.488281 C 170.300781 118.390625 171.484375 119.90625 172.886719 121.011719 C 174.289062 122.128906 175.804688 122.894531 177.417969 123.3125 C 179.03125 123.734375 180.476562 123.957031 181.746094 123.957031 C 183.019531 123.957031 184.464844 123.746094 186.078125 123.3125 C 187.691406 122.894531 189.203125 122.121094 190.605469 121.011719 C 192.011719 119.90625 193.191406 118.390625 194.140625 116.488281 C 195.09375 114.585938 195.578125 112.175781 195.578125 109.257812 L 195.578125 74.617188 L 206.703125 74.617188 L 206.703125 109.3125 C 206.703125 113.027344 206.117188 116.390625 204.957031 119.421875 C 203.796875 122.441406 202.117188 125.015625 199.953125 127.140625 C 197.777344 129.265625 195.160156 130.910156 192.085938 132.074219 C 189.003906 133.234375 185.570312 133.820312 181.746094 133.820312 Z M 181.746094 133.820312 " fill-opacity="1" fill-rule="nonzero"/><path fill="#ffffff" d="M 410.582031 133.898438 C 406.816406 133.898438 403.402344 133.3125 400.332031 132.148438 C 397.257812 130.988281 394.628906 129.339844 392.464844 127.21875 C 390.289062 125.09375 388.609375 122.515625 387.414062 119.5 C 386.222656 116.480469 385.625 113.105469 385.625 109.390625 L 385.625 74.695312 L 396.75 74.695312 L 396.75 109.335938 C 396.75 112.242188 397.226562 114.652344 398.1875 116.566406 C 399.136719 118.46875 400.320312 119.984375 401.722656 121.089844 C 403.125 122.207031 404.640625 122.972656 406.25 123.390625 C 407.863281 123.8125 409.3125 124.019531 410.582031 124.019531 C 411.851562 124.019531 413.300781 123.8125 414.914062 123.390625 C 416.527344 122.972656 418.039062 122.195312 419.441406 121.089844 C 420.84375 119.972656 422.027344 118.46875 422.976562 116.566406 C 423.925781 114.664062 424.414062 112.253906 424.414062 109.335938 L 424.414062 74.695312 L 435.539062 74.695312 L 435.539062 109.390625 C 435.539062 113.105469 434.953125 116.46875 433.792969 119.5 C 432.621094 122.515625 430.953125 125.09375 428.789062 127.21875 C 426.613281 129.339844 423.992188 130.988281 420.921875 132.148438 C 417.851562 133.3125 414.394531 133.898438 410.582031 133.898438 Z M 410.582031 133.898438 " fill-opacity="1" fill-rule="nonzero"/><path fill="#ffffff" d="M 208.027344 132.824219 L 237.945312 74.53125 L 239.09375 74.53125 L 268.757812 132.746094 L 256.648438 132.746094 L 238.496094 96.339844 L 220.292969 132.792969 C 220.300781 132.792969 208.027344 132.679688 208.027344 132.824219 Z M 208.027344 132.824219 " fill-opacity="1" fill-rule="nonzero"/><g clip-path="url(#d1d9723448)"><path fill="#ffffff" d="M 167.472656 140.367188 C 166.503906 140.003906 165.574219 139.59375 164.679688 139.152344 C 149.886719 161.898438 124.277344 176.996094 95.191406 176.996094 C 49.488281 176.996094 12.3125 139.769531 12.3125 94.027344 C 12.3125 48.285156 49.5 11.058594 95.191406 11.058594 C 130.839844 11.058594 161.277344 33.730469 172.941406 65.417969 L 184.628906 65.417969 C 172.5 27.527344 137.015625 0 95.191406 0 C 43.402344 0 1.265625 42.179688 1.265625 94.027344 C 1.265625 145.875 43.402344 188.054688 95.191406 188.054688 C 129.292969 188.054688 159.199219 169.761719 175.660156 142.480469 C 175.316406 142.414062 174.988281 142.324219 174.65625 142.246094 C 172.125 141.847656 169.726562 141.230469 167.472656 140.367188 Z M 167.472656 140.367188 " fill-opacity="1" fill-rule="nonzero"/></g><path fill="#ffffff" d="M 274.035156 74.617188 L 274.035156 132.746094 L 285.160156 132.746094 L 285.160156 98.164062 L 323.351562 132.746094 L 324.589844 132.746094 L 324.589844 74.617188 L 313.464844 74.617188 L 313.464844 109.789062 L 275.230469 74.617188 Z M 274.035156 74.617188 " fill-opacity="1" fill-rule="nonzero"/><path fill="#ffffff" d="M 350.253906 84.484375 L 350.253906 132.746094 L 361.378906 132.746094 L 361.378906 84.484375 L 377.992188 84.484375 L 377.992188 74.617188 L 333.558594 74.617188 L 333.558594 84.484375 Z M 350.253906 84.484375 " fill-opacity="1" fill-rule="nonzero"/><path fill="#ffffff" d="M 505.257812 74.695312 L 504.539062 74.695312 L 475.925781 108.273438 L 447.390625 74.695312 L 446.675781 74.695312 L 446.675781 132.746094 L 457.796875 132.746094 L 457.796875 103.417969 L 475.925781 125.304688 L 494.121094 103.417969 L 494.121094 132.746094 L 505.257812 132.746094 Z M 505.257812 74.695312 " fill-opacity="1" fill-rule="nonzero"/><path fill="#ffffff" d="M 206.703125 168.515625 C 204.394531 168.800781 202.042969 169.011719 199.710938 169.144531 C 171.871094 170.746094 145.070312 161.390625 124.257812 142.8125 C 103.445312 124.230469 91.09375 98.652344 89.503906 70.769531 C 88.308594 49.855469 93.300781 29.328125 103.964844 11.402344 L 94.472656 5.738281 C 82.6875 25.570312 77.152344 48.265625 78.476562 71.390625 C 80.246094 102.210938 93.886719 130.503906 116.910156 151.050781 C 138.242188 170.09375 165.253906 180.371094 193.601562 180.371094 C 195.84375 180.371094 198.097656 180.304688 200.351562 180.171875 C 202.472656 180.050781 204.59375 179.851562 206.703125 179.617188 Z M 206.703125 168.515625 " fill-opacity="1" fill-rule="nonzero"/><g fill="#1b8bff" fill-opacity="1"><g transform="translate(217.211782, 205.238363)"><g><path d="M 43.75 -7.65625 C 44.007812 -7.269531 44.140625 -6.945312 44.140625 -6.6875 C 44.140625 -6.46875 44.070312 -6.25 43.9375 -6.03125 C 43.8125 -5.820312 43.597656 -5.585938 43.296875 -5.328125 C 40.960938 -3.378906 38.34375 -1.875 35.4375 -0.8125 C 32.539062 0.25 29.515625 0.78125 26.359375 0.78125 C 21.941406 0.78125 17.925781 -0.222656 14.3125 -2.234375 C 10.695312 -4.253906 7.847656 -7.035156 5.765625 -10.578125 C 3.691406 -14.128906 2.65625 -18.113281 2.65625 -22.53125 C 2.65625 -27.03125 3.703125 -31.078125 5.796875 -34.671875 C 7.898438 -38.265625 10.78125 -41.085938 14.4375 -43.140625 C 18.101562 -45.191406 22.226562 -46.21875 26.8125 -46.21875 C 29.96875 -46.21875 32.953125 -45.675781 35.765625 -44.59375 C 38.578125 -43.519531 41.132812 -42.050781 43.4375 -40.1875 C 43.644531 -39.96875 43.8125 -39.757812 43.9375 -39.5625 C 44.070312 -39.375 44.140625 -39.191406 44.140625 -39.015625 C 44.140625 -38.710938 43.988281 -38.347656 43.6875 -37.921875 L 40.828125 -33.890625 C 40.441406 -33.367188 40.054688 -33.109375 39.671875 -33.109375 C 39.367188 -33.109375 38.976562 -33.28125 38.5 -33.625 C 36.769531 -34.925781 34.90625 -35.941406 32.90625 -36.671875 C 30.914062 -37.410156 28.84375 -37.78125 26.6875 -37.78125 C 23.957031 -37.78125 21.476562 -37.140625 19.25 -35.859375 C 17.019531 -34.585938 15.265625 -32.804688 13.984375 -30.515625 C 12.710938 -28.222656 12.078125 -25.601562 12.078125 -22.65625 C 12.078125 -19.800781 12.710938 -17.238281 13.984375 -14.96875 C 15.265625 -12.695312 17.007812 -10.910156 19.21875 -9.609375 C 21.425781 -8.304688 23.914062 -7.65625 26.6875 -7.65625 C 31.144531 -7.65625 35.125 -9.0625 38.625 -11.875 C 39.101562 -12.269531 39.515625 -12.46875 39.859375 -12.46875 C 40.203125 -12.46875 40.550781 -12.226562 40.90625 -11.75 Z M 43.75 -7.65625 "/></g></g></g><g fill="#1b8bff" fill-opacity="1"><g transform="translate(263.049292, 205.238363)"><g><path d="M 5.265625 -43.890625 C 5.265625 -44.453125 5.378906 -44.847656 5.609375 -45.078125 C 5.847656 -45.316406 6.25 -45.4375 6.8125 -45.4375 L 12.71875 -45.4375 C 13.28125 -45.4375 13.691406 -45.316406 13.953125 -45.078125 C 14.210938 -44.847656 14.34375 -44.453125 14.34375 -43.890625 L 14.34375 -1.5625 C 14.34375 -1 14.210938 -0.597656 13.953125 -0.359375 C 13.691406 -0.117188 13.28125 0 12.71875 0 L 6.8125 0 C 6.25 0 5.847656 -0.117188 5.609375 -0.359375 C 5.378906 -0.597656 5.265625 -1 5.265625 -1.5625 Z M 5.265625 -43.890625 "/></g></g></g><g fill="#1b8bff" fill-opacity="1"><g transform="translate(282.65684, 205.238363)"><g><path d="M 5.265625 -43.890625 C 5.265625 -44.453125 5.378906 -44.847656 5.609375 -45.078125 C 5.847656 -45.316406 6.25 -45.4375 6.8125 -45.4375 L 21.296875 -45.4375 C 27.523438 -45.4375 32.195312 -44.210938 35.3125 -41.765625 C 38.425781 -39.328125 39.984375 -35.726562 39.984375 -30.96875 C 39.984375 -27.757812 39.25 -25.082031 37.78125 -22.9375 C 36.3125 -20.800781 34.28125 -19.171875 31.6875 -18.046875 L 42.265625 -2.015625 C 42.566406 -1.578125 42.71875 -1.1875 42.71875 -0.84375 C 42.71875 -0.28125 42.242188 0 41.296875 0 L 34.796875 0 C 33.972656 0 33.332031 -0.128906 32.875 -0.390625 C 32.425781 -0.648438 31.960938 -1.125 31.484375 -1.8125 L 23.171875 -14.9375 C 22.960938 -15.28125 22.738281 -15.515625 22.5 -15.640625 C 22.257812 -15.773438 21.921875 -15.84375 21.484375 -15.84375 L 15.1875 -15.84375 C 14.84375 -15.84375 14.613281 -15.773438 14.5 -15.640625 C 14.394531 -15.515625 14.34375 -15.28125 14.34375 -14.9375 L 14.34375 -1.5625 C 14.34375 -1 14.210938 -0.597656 13.953125 -0.359375 C 13.691406 -0.117188 13.28125 0 12.71875 0 L 6.8125 0 C 6.25 0 5.847656 -0.117188 5.609375 -0.359375 C 5.378906 -0.597656 5.265625 -1 5.265625 -1.5625 Z M 21.09375 -23.890625 C 24.300781 -23.890625 26.679688 -24.429688 28.234375 -25.515625 C 29.796875 -26.597656 30.578125 -28.265625 30.578125 -30.515625 C 30.578125 -32.804688 29.765625 -34.457031 28.140625 -35.46875 C 26.515625 -36.488281 24.101562 -37 20.90625 -37 L 15.1875 -37 C 14.882812 -37 14.664062 -36.929688 14.53125 -36.796875 C 14.40625 -36.671875 14.34375 -36.457031 14.34375 -36.15625 L 14.34375 -24.796875 C 14.34375 -24.453125 14.394531 -24.210938 14.5 -24.078125 C 14.613281 -23.953125 14.84375 -23.890625 15.1875 -23.890625 Z M 21.09375 -23.890625 "/></g></g></g><g fill="#1b8bff" fill-opacity="1"><g transform="translate(325.76748, 205.238363)"><g><path d="M 43.75 -7.65625 C 44.007812 -7.269531 44.140625 -6.945312 44.140625 -6.6875 C 44.140625 -6.46875 44.070312 -6.25 43.9375 -6.03125 C 43.8125 -5.820312 43.597656 -5.585938 43.296875 -5.328125 C 40.960938 -3.378906 38.34375 -1.875 35.4375 -0.8125 C 32.539062 0.25 29.515625 0.78125 26.359375 0.78125 C 21.941406 0.78125 17.925781 -0.222656 14.3125 -2.234375 C 10.695312 -4.253906 7.847656 -7.035156 5.765625 -10.578125 C 3.691406 -14.128906 2.65625 -18.113281 2.65625 -22.53125 C 2.65625 -27.03125 3.703125 -31.078125 5.796875 -34.671875 C 7.898438 -38.265625 10.78125 -41.085938 14.4375 -43.140625 C 18.101562 -45.191406 22.226562 -46.21875 26.8125 -46.21875 C 29.96875 -46.21875 32.953125 -45.675781 35.765625 -44.59375 C 38.578125 -43.519531 41.132812 -42.050781 43.4375 -40.1875 C 43.644531 -39.96875 43.8125 -39.757812 43.9375 -39.5625 C 44.070312 -39.375 44.140625 -39.191406 44.140625 -39.015625 C 44.140625 -38.710938 43.988281 -38.347656 43.6875 -37.921875 L 40.828125 -33.890625 C 40.441406 -33.367188 40.054688 -33.109375 39.671875 -33.109375 C 39.367188 -33.109375 38.976562 -33.28125 38.5 -33.625 C 36.769531 -34.925781 34.90625 -35.941406 32.90625 -36.671875 C 30.914062 -37.410156 28.84375 -37.78125 26.6875 -37.78125 C 23.957031 -37.78125 21.476562 -37.140625 19.25 -35.859375 C 17.019531 -34.585938 15.265625 -32.804688 13.984375 -30.515625 C 12.710938 -28.222656 12.078125 -25.601562 12.078125 -22.65625 C 12.078125 -19.800781 12.710938 -17.238281 13.984375 -14.96875 C 15.265625 -12.695312 17.007812 -10.910156 19.21875 -9.609375 C 21.425781 -8.304688 23.914062 -7.65625 26.6875 -7.65625 C 31.144531 -7.65625 35.125 -9.0625 38.625 -11.875 C 39.101562 -12.269531 39.515625 -12.46875 39.859375 -12.46875 C 40.203125 -12.46875 40.550781 -12.226562 40.90625 -11.75 Z M 43.75 -7.65625 "/></g></g></g><g fill="#1b8bff" fill-opacity="1"><g transform="translate(371.60499, 205.238363)"><g><path d="M 4.9375 -43.890625 C 4.9375 -44.453125 5.050781 -44.847656 5.28125 -45.078125 C 5.519531 -45.316406 5.921875 -45.4375 6.484375 -45.4375 L 12.40625 -45.4375 C 12.96875 -45.4375 13.375 -45.316406 13.625 -45.078125 C 13.882812 -44.847656 14.015625 -44.453125 14.015625 -43.890625 L 14.015625 -20 C 14.015625 -16.0625 14.910156 -13.019531 16.703125 -10.875 C 18.503906 -8.726562 21.140625 -7.65625 24.609375 -7.65625 C 28.023438 -7.65625 30.648438 -8.726562 32.484375 -10.875 C 34.328125 -13.019531 35.25 -16.039062 35.25 -19.9375 L 35.25 -43.890625 C 35.25 -44.453125 35.367188 -44.847656 35.609375 -45.078125 C 35.847656 -45.316406 36.25 -45.4375 36.8125 -45.4375 L 42.71875 -45.4375 C 43.28125 -45.4375 43.691406 -45.316406 43.953125 -45.078125 C 44.210938 -44.847656 44.34375 -44.453125 44.34375 -43.890625 L 44.34375 -19.46875 C 44.34375 -15.0625 43.488281 -11.34375 41.78125 -8.3125 C 40.070312 -5.28125 37.710938 -3.003906 34.703125 -1.484375 C 31.691406 0.0234375 28.21875 0.78125 24.28125 0.78125 C 20.425781 0.78125 17.046875 0.046875 14.140625 -1.421875 C 11.242188 -2.898438 8.984375 -5.128906 7.359375 -8.109375 C 5.742188 -11.097656 4.9375 -14.84375 4.9375 -19.34375 Z M 4.9375 -43.890625 "/></g></g></g><g fill="#1b8bff" fill-opacity="1"><g transform="translate(420.883563, 205.238363)"><g><path d="M 5.265625 -43.890625 C 5.265625 -44.453125 5.378906 -44.847656 5.609375 -45.078125 C 5.847656 -45.316406 6.25 -45.4375 6.8125 -45.4375 L 12.71875 -45.4375 C 13.28125 -45.4375 13.691406 -45.316406 13.953125 -45.078125 C 14.210938 -44.847656 14.34375 -44.453125 14.34375 -43.890625 L 14.34375 -1.5625 C 14.34375 -1 14.210938 -0.597656 13.953125 -0.359375 C 13.691406 -0.117188 13.28125 0 12.71875 0 L 6.8125 0 C 6.25 0 5.847656 -0.117188 5.609375 -0.359375 C 5.378906 -0.597656 5.265625 -1 5.265625 -1.5625 Z M 5.265625 -43.890625 "/></g></g></g><g fill="#1b8bff" fill-opacity="1"><g transform="translate(440.491099, 205.238363)"><g><path d="M 14.609375 -36.15625 C 14.609375 -36.457031 14.53125 -36.671875 14.375 -36.796875 C 14.226562 -36.929688 14.003906 -37 13.703125 -37 L 2.53125 -37 C 1.96875 -37 1.566406 -37.117188 1.328125 -37.359375 C 1.085938 -37.597656 0.96875 -38 0.96875 -38.5625 L 0.96875 -43.890625 C 0.96875 -44.453125 1.085938 -44.847656 1.328125 -45.078125 C 1.566406 -45.316406 1.96875 -45.4375 2.53125 -45.4375 L 35.703125 -45.4375 C 36.265625 -45.4375 36.664062 -45.316406 36.90625 -45.078125 C 37.144531 -44.847656 37.265625 -44.453125 37.265625 -43.890625 L 37.265625 -38.5625 C 37.265625 -38 37.144531 -37.597656 36.90625 -37.359375 C 36.664062 -37.117188 36.265625 -37 35.703125 -37 L 24.546875 -37 C 24.242188 -37 24.023438 -36.929688 23.890625 -36.796875 C 23.765625 -36.671875 23.703125 -36.457031 23.703125 -36.15625 L 23.703125 -1.5625 C 23.703125 -1 23.570312 -0.597656 23.3125 -0.359375 C 23.050781 -0.117188 22.640625 0 22.078125 0 L 16.171875 0 C 15.609375 0 15.207031 -0.117188 14.96875 -0.359375 C 14.726562 -0.597656 14.609375 -1 14.609375 -1.5625 Z M 14.609375 -36.15625 "/></g></g></g><g fill="#1b8bff" fill-opacity="1"><g transform="translate(478.740411, 205.238363)"><g/></g></g></svg>
