<!--
 Copyright (c) 2023 - 2026 Chair for Design Automation, TUM
 Copyright (c) 2025 - 2026 Munich Quantum Software Company GmbH
 All rights reserved.

 SPDX-License-Identifier: MIT

 Licensed under the MIT License
-->

<svg xmlns="http://www.w3.org/2000/svg" xmlns:xlink="http://www.w3.org/1999/xlink" width="710" zoomAndPan="magnify" viewBox="0 0 532.5 243.75" height="325" preserveAspectRatio="xMidYMid meet" version="1.0"><defs><g/></defs><path stroke-linecap="butt" transform="matrix(1.105194, 0, 0, 1.105194, 11.391214, 388.919305)" fill-opacity="1" fill="#3070b3" fill-rule="nonzero" stroke-linejoin="miter" d="M 123.068871 -291.172393 C 108.468075 -295.7495 92.990737 -298.159992 77.280125 -298.159992 C 49.06111 -298.159992 21.548983 -290.419556 -1.421381 -276.189877 L -1.421381 -268.470647 C 21.181401 -283.470835 48.831371 -291.691956 77.280125 -291.691956 C 93.019013 -291.691956 108.528161 -289.171896 123.068871 -284.389791 Z M 123.068871 -291.172393 " stroke="#1b8bff" stroke-width="1" stroke-opacity="1" stroke-miterlimit="4"/><path stroke-linecap="butt" transform="matrix(1.105194, 0, 0, 1.105194, 11.391214, 388.919305)" fill-opacity="1" fill="#3070b3" fill-rule="nonzero" stroke-linejoin="miter" d="M 123.249128 -249.451794 C 108.658936 -244.63081 93.100305 -242.089543 77.290729 -242.089543 C 48.83844 -242.089543 21.18847 -250.300061 -1.410777 -265.310852 L -1.410777 -257.591622 C 21.548983 -243.361943 49.06111 -235.621507 77.290729 -235.621507 C 93.499697 -235.621507 109.461255 -238.180446 124.468512 -243.050912 C 123.860587 -245.062012 123.461195 -247.200352 123.249128 -249.451794 Z M 123.249128 -249.451794 " stroke="#1b8bff" stroke-width="1" stroke-opacity="1" stroke-miterlimit="4"/><path fill="#152f45" d="M 181.824219 133.730469 C 178.054688 133.730469 174.640625 133.144531 171.566406 131.980469 C 168.496094 130.820312 165.863281 129.175781 163.699219 127.054688 C 161.519531 124.929688 159.839844 122.367188 158.648438 119.339844 C 157.453125 116.320312 156.855469 112.949219 156.855469 109.238281 L 156.855469 74.566406 L 167.984375 74.566406 L 167.984375 109.183594 C 167.984375 112.089844 168.460938 114.5 169.421875 116.410156 C 170.375 118.3125 171.554688 119.824219 172.960938 120.929688 C 174.363281 122.046875 175.878906 122.808594 177.492188 123.230469 C 179.105469 123.648438 180.550781 123.871094 181.824219 123.871094 C 183.09375 123.871094 184.542969 123.660156 186.15625 123.230469 C 187.769531 122.808594 189.28125 122.035156 190.6875 120.929688 C 192.089844 119.824219 193.273438 118.3125 194.222656 116.410156 C 195.171875 114.507812 195.660156 112.101562 195.660156 109.183594 L 195.660156 74.566406 L 206.789062 74.566406 L 206.789062 109.238281 C 206.789062 112.949219 206.203125 116.3125 205.042969 119.339844 C 203.882812 122.355469 202.203125 124.929688 200.035156 127.054688 C 197.859375 129.175781 195.238281 130.820312 192.167969 131.980469 C 189.085938 133.144531 185.648438 133.730469 181.824219 133.730469 Z M 181.824219 133.730469 " fill-opacity="1" fill-rule="nonzero"/><path fill="#152f45" d="M 410.753906 133.804688 C 406.984375 133.804688 403.570312 133.21875 400.496094 132.058594 C 397.425781 130.898438 394.792969 129.253906 392.628906 127.128906 C 390.449219 125.007812 388.769531 122.433594 387.578125 119.417969 C 386.382812 116.398438 385.785156 113.027344 385.785156 109.316406 L 385.785156 74.644531 L 396.914062 74.644531 L 396.914062 109.257812 C 396.914062 112.167969 397.390625 114.574219 398.351562 116.488281 C 399.304688 118.386719 400.484375 119.902344 401.890625 121.007812 C 403.292969 122.125 404.808594 122.886719 406.421875 123.304688 C 408.035156 123.726562 409.480469 123.9375 410.753906 123.9375 C 412.023438 123.9375 413.472656 123.726562 415.085938 123.304688 C 416.699219 122.886719 418.214844 122.113281 419.617188 121.007812 C 421.019531 119.890625 422.203125 118.386719 423.152344 116.488281 C 424.105469 114.585938 424.589844 112.175781 424.589844 109.257812 L 424.589844 74.644531 L 435.71875 74.644531 L 435.71875 109.316406 C 435.71875 113.027344 435.132812 116.386719 433.972656 119.417969 C 432.800781 122.433594 431.132812 125.007812 428.964844 127.128906 C 426.789062 129.253906 424.171875 130.898438 421.097656 132.058594 C 418.023438 133.21875 414.566406 133.804688 410.753906 133.804688 Z M 410.753906 133.804688 " fill-opacity="1" fill-rule="nonzero"/><path fill="#152f45" d="M 208.117188 132.734375 L 238.042969 74.480469 L 239.195312 74.480469 L 268.867188 132.65625 L 256.753906 132.65625 L 238.597656 96.273438 L 220.382812 132.699219 C 220.394531 132.699219 208.117188 132.589844 208.117188 132.734375 Z M 208.117188 132.734375 " fill-opacity="1" fill-rule="nonzero"/><path fill="#152f45" d="M 167.542969 140.269531 C 166.570312 139.90625 165.644531 139.496094 164.746094 139.054688 C 149.949219 161.789062 124.332031 176.875 95.230469 176.875 C 49.507812 176.875 12.320312 139.675781 12.320312 93.964844 C 12.320312 48.253906 49.519531 11.050781 95.230469 11.050781 C 130.894531 11.050781 161.34375 33.707031 173.015625 65.371094 L 184.707031 65.371094 C 172.574219 27.507812 137.074219 0 95.230469 0 C 43.417969 0 1.265625 42.152344 1.265625 93.964844 C 1.265625 145.773438 43.417969 187.925781 95.230469 187.925781 C 129.347656 187.925781 159.265625 169.648438 175.734375 142.382812 C 175.390625 142.316406 175.058594 142.226562 174.726562 142.148438 C 172.195312 141.753906 169.796875 141.132812 167.542969 140.269531 Z M 167.542969 140.269531 " fill-opacity="1" fill-rule="nonzero"/><path fill="#152f45" d="M 274.152344 74.566406 L 274.152344 132.65625 L 285.28125 132.65625 L 285.28125 98.097656 L 323.488281 132.65625 L 324.726562 132.65625 L 324.726562 74.566406 L 313.59375 74.566406 L 313.59375 109.710938 L 275.34375 74.566406 Z M 274.152344 74.566406 " fill-opacity="1" fill-rule="nonzero"/><path fill="#152f45" d="M 350.398438 84.425781 L 350.398438 132.65625 L 361.527344 132.65625 L 361.527344 84.425781 L 378.148438 84.425781 L 378.148438 74.566406 L 333.699219 74.566406 L 333.699219 84.425781 Z M 350.398438 84.425781 " fill-opacity="1" fill-rule="nonzero"/><path fill="#152f45" d="M 505.46875 74.644531 L 504.75 74.644531 L 476.125 108.199219 L 447.578125 74.644531 L 446.859375 74.644531 L 446.859375 132.65625 L 457.988281 132.65625 L 457.988281 103.347656 L 476.125 125.21875 L 494.328125 103.347656 L 494.328125 132.65625 L 505.46875 132.65625 Z M 505.46875 74.644531 " fill-opacity="1" fill-rule="nonzero"/><path fill="#152f45" d="M 206.789062 168.398438 C 204.480469 168.6875 202.125 168.894531 199.792969 169.027344 C 171.941406 170.632812 145.128906 161.28125 124.308594 142.714844 C 103.488281 124.148438 91.128906 98.582031 89.539062 70.722656 C 88.34375 49.820312 93.339844 29.308594 104.007812 11.394531 L 94.511719 5.734375 C 82.71875 25.550781 77.183594 48.230469 78.507812 71.339844 C 80.277344 102.140625 93.925781 130.414062 116.960938 150.949219 C 138.300781 169.980469 165.324219 180.246094 193.683594 180.246094 C 195.925781 180.246094 198.179688 180.179688 200.433594 180.046875 C 202.554688 179.925781 204.679688 179.726562 206.789062 179.496094 Z M 206.789062 168.398438 " fill-opacity="1" fill-rule="nonzero"/><g fill="#3070b3" fill-opacity="1"><g transform="translate(217.211782, 205.238363)"><g><path d="M 43.75 -7.65625 C 44.007812 -7.269531 44.140625 -6.945312 44.140625 -6.6875 C 44.140625 -6.46875 44.070312 -6.25 43.9375 -6.03125 C 43.8125 -5.820312 43.597656 -5.585938 43.296875 -5.328125 C 40.960938 -3.378906 38.34375 -1.875 35.4375 -0.8125 C 32.539062 0.25 29.515625 0.78125 26.359375 0.78125 C 21.941406 0.78125 17.925781 -0.222656 14.3125 -2.234375 C 10.695312 -4.253906 7.847656 -7.035156 5.765625 -10.578125 C 3.691406 -14.128906 2.65625 -18.113281 2.65625 -22.53125 C 2.65625 -27.03125 3.703125 -31.078125 5.796875 -34.671875 C 7.898438 -38.265625 10.78125 -41.085938 14.4375 -43.140625 C 18.101562 -45.191406 22.226562 -46.21875 26.8125 -46.21875 C 29.96875 -46.21875 32.953125 -45.675781 35.765625 -44.59375 C 38.578125 -43.519531 41.132812 -42.050781 43.4375 -40.1875 C 43.644531 -39.96875 43.8125 -39.757812 43.9375 -39.5625 C 44.070312 -39.375 44.140625 -39.191406 44.140625 -39.015625 C 44.140625 -38.710938 43.988281 -38.347656 43.6875 -37.921875 L 40.828125 -33.890625 C 40.441406 -33.367188 40.054688 -33.109375 39.671875 -33.109375 C 39.367188 -33.109375 38.976562 -33.28125 38.5 -33.625 C 36.769531 -34.925781 34.90625 -35.941406 32.90625 -36.671875 C 30.914062 -37.410156 28.84375 -37.78125 26.6875 -37.78125 C 23.957031 -37.78125 21.476562 -37.140625 19.25 -35.859375 C 17.019531 -34.585938 15.265625 -32.804688 13.984375 -30.515625 C 12.710938 -28.222656 12.078125 -25.601562 12.078125 -22.65625 C 12.078125 -19.800781 12.710938 -17.238281 13.984375 -14.96875 C 15.265625 -12.695312 17.007812 -10.910156 19.21875 -9.609375 C 21.425781 -8.304688 23.914062 -7.65625 26.6875 -7.65625 C 31.144531 -7.65625 35.125 -9.0625 38.625 -11.875 C 39.101562 -12.269531 39.515625 -12.46875 39.859375 -12.46875 C 40.203125 -12.46875 40.550781 -12.226562 40.90625 -11.75 Z M 43.75 -7.65625 "/></g></g></g><g fill="#3070b3" fill-opacity="1"><g transform="translate(263.049292, 205.238363)"><g><path d="M 5.265625 -43.890625 C 5.265625 -44.453125 5.378906 -44.847656 5.609375 -45.078125 C 5.847656 -45.316406 6.25 -45.4375 6.8125 -45.4375 L 12.71875 -45.4375 C 13.28125 -45.4375 13.691406 -45.316406 13.953125 -45.078125 C 14.210938 -44.847656 14.34375 -44.453125 14.34375 -43.890625 L 14.34375 -1.5625 C 14.34375 -1 14.210938 -0.597656 13.953125 -0.359375 C 13.691406 -0.117188 13.28125 0 12.71875 0 L 6.8125 0 C 6.25 0 5.847656 -0.117188 5.609375 -0.359375 C 5.378906 -0.597656 5.265625 -1 5.265625 -1.5625 Z M 5.265625 -43.890625 "/></g></g></g><g fill="#3070b3" fill-opacity="1"><g transform="translate(282.65684, 205.238363)"><g><path d="M 5.265625 -43.890625 C 5.265625 -44.453125 5.378906 -44.847656 5.609375 -45.078125 C 5.847656 -45.316406 6.25 -45.4375 6.8125 -45.4375 L 21.296875 -45.4375 C 27.523438 -45.4375 32.195312 -44.210938 35.3125 -41.765625 C 38.425781 -39.328125 39.984375 -35.726562 39.984375 -30.96875 C 39.984375 -27.757812 39.25 -25.082031 37.78125 -22.9375 C 36.3125 -20.800781 34.28125 -19.171875 31.6875 -18.046875 L 42.265625 -2.015625 C 42.566406 -1.578125 42.71875 -1.1875 42.71875 -0.84375 C 42.71875 -0.28125 42.242188 0 41.296875 0 L 34.796875 0 C 33.972656 0 33.332031 -0.128906 32.875 -0.390625 C 32.425781 -0.648438 31.960938 -1.125 31.484375 -1.8125 L 23.171875 -14.9375 C 22.960938 -15.28125 22.738281 -15.515625 22.5 -15.640625 C 22.257812 -15.773438 21.921875 -15.84375 21.484375 -15.84375 L 15.1875 -15.84375 C 14.84375 -15.84375 14.613281 -15.773438 14.5 -15.640625 C 14.394531 -15.515625 14.34375 -15.28125 14.34375 -14.9375 L 14.34375 -1.5625 C 14.34375 -1 14.210938 -0.597656 13.953125 -0.359375 C 13.691406 -0.117188 13.28125 0 12.71875 0 L 6.8125 0 C 6.25 0 5.847656 -0.117188 5.609375 -0.359375 C 5.378906 -0.597656 5.265625 -1 5.265625 -1.5625 Z M 21.09375 -23.890625 C 24.300781 -23.890625 26.679688 -24.429688 28.234375 -25.515625 C 29.796875 -26.597656 30.578125 -28.265625 30.578125 -30.515625 C 30.578125 -32.804688 29.765625 -34.457031 28.140625 -35.46875 C 26.515625 -36.488281 24.101562 -37 20.90625 -37 L 15.1875 -37 C 14.882812 -37 14.664062 -36.929688 14.53125 -36.796875 C 14.40625 -36.671875 14.34375 -36.457031 14.34375 -36.15625 L 14.34375 -24.796875 C 14.34375 -24.453125 14.394531 -24.210938 14.5 -24.078125 C 14.613281 -23.953125 14.84375 -23.890625 15.1875 -23.890625 Z M 21.09375 -23.890625 "/></g></g></g><g fill="#3070b3" fill-opacity="1"><g transform="translate(325.76748, 205.238363)"><g><path d="M 43.75 -7.65625 C 44.007812 -7.269531 44.140625 -6.945312 44.140625 -6.6875 C 44.140625 -6.46875 44.070312 -6.25 43.9375 -6.03125 C 43.8125 -5.820312 43.597656 -5.585938 43.296875 -5.328125 C 40.960938 -3.378906 38.34375 -1.875 35.4375 -0.8125 C 32.539062 0.25 29.515625 0.78125 26.359375 0.78125 C 21.941406 0.78125 17.925781 -0.222656 14.3125 -2.234375 C 10.695312 -4.253906 7.847656 -7.035156 5.765625 -10.578125 C 3.691406 -14.128906 2.65625 -18.113281 2.65625 -22.53125 C 2.65625 -27.03125 3.703125 -31.078125 5.796875 -34.671875 C 7.898438 -38.265625 10.78125 -41.085938 14.4375 -43.140625 C 18.101562 -45.191406 22.226562 -46.21875 26.8125 -46.21875 C 29.96875 -46.21875 32.953125 -45.675781 35.765625 -44.59375 C 38.578125 -43.519531 41.132812 -42.050781 43.4375 -40.1875 C 43.644531 -39.96875 43.8125 -39.757812 43.9375 -39.5625 C 44.070312 -39.375 44.140625 -39.191406 44.140625 -39.015625 C 44.140625 -38.710938 43.988281 -38.347656 43.6875 -37.921875 L 40.828125 -33.890625 C 40.441406 -33.367188 40.054688 -33.109375 39.671875 -33.109375 C 39.367188 -33.109375 38.976562 -33.28125 38.5 -33.625 C 36.769531 -34.925781 34.90625 -35.941406 32.90625 -36.671875 C 30.914062 -37.410156 28.84375 -37.78125 26.6875 -37.78125 C 23.957031 -37.78125 21.476562 -37.140625 19.25 -35.859375 C 17.019531 -34.585938 15.265625 -32.804688 13.984375 -30.515625 C 12.710938 -28.222656 12.078125 -25.601562 12.078125 -22.65625 C 12.078125 -19.800781 12.710938 -17.238281 13.984375 -14.96875 C 15.265625 -12.695312 17.007812 -10.910156 19.21875 -9.609375 C 21.425781 -8.304688 23.914062 -7.65625 26.6875 -7.65625 C 31.144531 -7.65625 35.125 -9.0625 38.625 -11.875 C 39.101562 -12.269531 39.515625 -12.46875 39.859375 -12.46875 C 40.203125 -12.46875 40.550781 -12.226562 40.90625 -11.75 Z M 43.75 -7.65625 "/></g></g></g><g fill="#3070b3" fill-opacity="1"><g transform="translate(371.60499, 205.238363)"><g><path d="M 4.9375 -43.890625 C 4.9375 -44.453125 5.050781 -44.847656 5.28125 -45.078125 C 5.519531 -45.316406 5.921875 -45.4375 6.484375 -45.4375 L 12.40625 -45.4375 C 12.96875 -45.4375 13.375 -45.316406 13.625 -45.078125 C 13.882812 -44.847656 14.015625 -44.453125 14.015625 -43.890625 L 14.015625 -20 C 14.015625 -16.0625 14.910156 -13.019531 16.703125 -10.875 C 18.503906 -8.726562 21.140625 -7.65625 24.609375 -7.65625 C 28.023438 -7.65625 30.648438 -8.726562 32.484375 -10.875 C 34.328125 -13.019531 35.25 -16.039062 35.25 -19.9375 L 35.25 -43.890625 C 35.25 -44.453125 35.367188 -44.847656 35.609375 -45.078125 C 35.847656 -45.316406 36.25 -45.4375 36.8125 -45.4375 L 42.71875 -45.4375 C 43.28125 -45.4375 43.691406 -45.316406 43.953125 -45.078125 C 44.210938 -44.847656 44.34375 -44.453125 44.34375 -43.890625 L 44.34375 -19.46875 C 44.34375 -15.0625 43.488281 -11.34375 41.78125 -8.3125 C 40.070312 -5.28125 37.710938 -3.003906 34.703125 -1.484375 C 31.691406 0.0234375 28.21875 0.78125 24.28125 0.78125 C 20.425781 0.78125 17.046875 0.046875 14.140625 -1.421875 C 11.242188 -2.898438 8.984375 -5.128906 7.359375 -8.109375 C 5.742188 -11.097656 4.9375 -14.84375 4.9375 -19.34375 Z M 4.9375 -43.890625 "/></g></g></g><g fill="#3070b3" fill-opacity="1"><g transform="translate(420.883563, 205.238363)"><g><path d="M 5.265625 -43.890625 C 5.265625 -44.453125 5.378906 -44.847656 5.609375 -45.078125 C 5.847656 -45.316406 6.25 -45.4375 6.8125 -45.4375 L 12.71875 -45.4375 C 13.28125 -45.4375 13.691406 -45.316406 13.953125 -45.078125 C 14.210938 -44.847656 14.34375 -44.453125 14.34375 -43.890625 L 14.34375 -1.5625 C 14.34375 -1 14.210938 -0.597656 13.953125 -0.359375 C 13.691406 -0.117188 13.28125 0 12.71875 0 L 6.8125 0 C 6.25 0 5.847656 -0.117188 5.609375 -0.359375 C 5.378906 -0.597656 5.265625 -1 5.265625 -1.5625 Z M 5.265625 -43.890625 "/></g></g></g><g fill="#3070b3" fill-opacity="1"><g transform="translate(440.491099, 205.238363)"><g><path d="M 14.609375 -36.15625 C 14.609375 -36.457031 14.53125 -36.671875 14.375 -36.796875 C 14.226562 -36.929688 14.003906 -37 13.703125 -37 L 2.53125 -37 C 1.96875 -37 1.566406 -37.117188 1.328125 -37.359375 C 1.085938 -37.597656 0.96875 -38 0.96875 -38.5625 L 0.96875 -43.890625 C 0.96875 -44.453125 1.085938 -44.847656 1.328125 -45.078125 C 1.566406 -45.316406 1.96875 -45.4375 2.53125 -45.4375 L 35.703125 -45.4375 C 36.265625 -45.4375 36.664062 -45.316406 36.90625 -45.078125 C 37.144531 -44.847656 37.265625 -44.453125 37.265625 -43.890625 L 37.265625 -38.5625 C 37.265625 -38 37.144531 -37.597656 36.90625 -37.359375 C 36.664062 -37.117188 36.265625 -37 35.703125 -37 L 24.546875 -37 C 24.242188 -37 24.023438 -36.929688 23.890625 -36.796875 C 23.765625 -36.671875 23.703125 -36.457031 23.703125 -36.15625 L 23.703125 -1.5625 C 23.703125 -1 23.570312 -0.597656 23.3125 -0.359375 C 23.050781 -0.117188 22.640625 0 22.078125 0 L 16.171875 0 C 15.609375 0 15.207031 -0.117188 14.96875 -0.359375 C 14.726562 -0.597656 14.609375 -1 14.609375 -1.5625 Z M 14.609375 -36.15625 "/></g></g></g><g fill="#3070b3" fill-opacity="1"><g transform="translate(478.740411, 205.238363)"><g/></g></g></svg>
