<svg xmlns="http://www.w3.org/2000/svg" xmlns:xlink="http://www.w3.org/1999/xlink" width="329" zoomAndPan="magnify" viewBox="0 0 246.75 189.750001" height="253" preserveAspectRatio="xMidYMid meet" version="1.0"><defs><g/><clipPath id="734eec743e"><path d="M 0.0390625 0.0976562 L 184.8125 0.0976562 L 184.8125 189.273438 L 0.0390625 189.273438 Z M 0.0390625 0.0976562 " clip-rule="nonzero"/></clipPath><clipPath id="1e504ff0d3"><path d="M 77 5 L 206.765625 5 L 206.765625 182 L 77 182 Z M 77 5 " clip-rule="nonzero"/></clipPath><clipPath id="ad1208dceb"><rect x="0" width="56" y="0" height="107"/></clipPath></defs><path stroke-linecap="butt" transform="matrix(1.111308, 0, 0, 1.112532, 10.216554, 391.598324)" fill-opacity="1" fill="#3070b3" fill-rule="nonzero" stroke-linejoin="miter" d="M 123.069194 -291.171988 C 108.467879 -295.750508 92.991329 -298.159147 77.279275 -298.159147 C 49.060846 -298.159147 21.548933 -290.420606 -1.421599 -276.189976 L -1.421599 -268.472502 C 21.179858 -283.47207 48.832371 -291.691636 77.279275 -291.691636 C 93.01945 -291.691636 108.531149 -289.170642 123.069194 -284.388476 Z M 123.069194 -291.171988 " stroke="#1b8bff" stroke-width="1" stroke-opacity="1" stroke-miterlimit="4"/><path stroke-linecap="butt" transform="matrix(1.111308, 0, 0, 1.112532, 10.216554, 391.598324)" fill-opacity="1" fill="#3070b3" fill-rule="nonzero" stroke-linejoin="miter" d="M 123.248459 -249.452684 C 108.661204 -244.631896 93.100295 -242.089835 77.28982 -242.089835 C 48.839401 -242.089835 21.190403 -250.298868 -1.411054 -265.31248 L -1.411054 -257.591495 C 21.548933 -243.360866 49.060846 -235.622324 77.28982 -235.622324 C 93.501005 -235.622324 109.45911 -238.181942 124.471679 -243.051886 C 123.860069 -245.060255 123.459359 -247.198536 123.248459 -249.452684 Z M 123.248459 -249.452684 " stroke="#1b8bff" stroke-width="1" stroke-opacity="1" stroke-miterlimit="4"/><g clip-path="url(#734eec743e)"><path fill="#152f45" d="M 167.234375 141.300781 C 166.253906 140.933594 165.320312 140.519531 164.421875 140.074219 C 149.539062 162.960938 123.78125 178.148438 94.519531 178.148438 C 48.546875 178.148438 11.148438 140.699219 11.148438 94.683594 C 11.148438 48.671875 48.554688 11.222656 94.519531 11.222656 C 130.382812 11.222656 161 34.03125 172.730469 65.902344 L 184.492188 65.902344 C 172.289062 27.789062 136.59375 0.0976562 94.519531 0.0976562 C 42.421875 0.0976562 0.0390625 42.53125 0.0390625 94.683594 C 0.0390625 146.839844 42.421875 189.273438 94.519531 189.273438 C 128.828125 189.273438 158.910156 170.871094 175.464844 143.425781 C 175.125 143.359375 174.789062 143.269531 174.457031 143.191406 C 171.910156 142.789062 169.5 142.167969 167.234375 141.300781 Z M 167.234375 141.300781 " fill-opacity="1" fill-rule="nonzero"/></g><g clip-path="url(#1e504ff0d3)"><path fill="#152f45" d="M 206.695312 169.613281 C 204.375 169.902344 202.003906 170.113281 199.660156 170.246094 C 171.65625 171.863281 144.695312 162.449219 123.757812 143.761719 C 102.824219 125.066406 90.398438 99.335938 88.796875 71.289062 C 87.597656 50.25 92.621094 29.601562 103.34375 11.570312 L 93.800781 5.871094 C 81.941406 25.820312 76.375 48.648438 77.707031 71.910156 C 79.484375 102.917969 93.210938 131.375 116.367188 152.042969 C 137.828125 171.203125 164.996094 181.542969 193.515625 181.542969 C 195.769531 181.542969 198.039062 181.472656 200.304688 181.339844 C 202.4375 181.214844 204.574219 181.015625 206.695312 180.785156 Z M 206.695312 169.613281 " fill-opacity="1" fill-rule="nonzero"/></g><g transform="matrix(1, 0, 0, 1, 151, 46)"><g clip-path="url(#ad1208dceb)"><g fill="#3070b3" fill-opacity="1"><g transform="translate(1.204184, 83.582115)"><g><path d="M 51.5625 -9.03125 C 51.863281 -8.570312 52.015625 -8.1875 52.015625 -7.875 C 52.015625 -7.625 51.9375 -7.367188 51.78125 -7.109375 C 51.632812 -6.859375 51.382812 -6.578125 51.03125 -6.265625 C 48.269531 -3.972656 45.179688 -2.203125 41.765625 -0.953125 C 38.347656 0.296875 34.78125 0.921875 31.0625 0.921875 C 25.851562 0.921875 21.117188 -0.265625 16.859375 -2.640625 C 12.609375 -5.015625 9.257812 -8.289062 6.8125 -12.46875 C 4.363281 -16.65625 3.140625 -21.347656 3.140625 -26.546875 C 3.140625 -31.847656 4.375 -36.613281 6.84375 -40.84375 C 9.320312 -45.082031 12.710938 -48.410156 17.015625 -50.828125 C 21.328125 -53.253906 26.1875 -54.46875 31.59375 -54.46875 C 35.3125 -54.46875 38.828125 -53.828125 42.140625 -52.546875 C 45.460938 -51.273438 48.472656 -49.546875 51.171875 -47.359375 C 51.429688 -47.097656 51.632812 -46.851562 51.78125 -46.625 C 51.9375 -46.394531 52.015625 -46.175781 52.015625 -45.96875 C 52.015625 -45.613281 51.835938 -45.179688 51.484375 -44.671875 L 48.125 -39.9375 C 47.664062 -39.320312 47.203125 -39.015625 46.734375 -39.015625 C 46.378906 -39.015625 45.921875 -39.21875 45.359375 -39.625 C 43.316406 -41.15625 41.125 -42.351562 38.78125 -43.21875 C 36.4375 -44.082031 33.988281 -44.515625 31.4375 -44.515625 C 28.226562 -44.515625 25.3125 -43.765625 22.6875 -42.265625 C 20.0625 -40.765625 17.992188 -38.660156 16.484375 -35.953125 C 14.984375 -33.253906 14.234375 -30.171875 14.234375 -26.703125 C 14.234375 -23.335938 14.984375 -20.3125 16.484375 -17.625 C 17.992188 -14.945312 20.046875 -12.84375 22.640625 -11.3125 C 25.242188 -9.789062 28.175781 -9.03125 31.4375 -9.03125 C 36.695312 -9.03125 41.390625 -10.6875 45.515625 -14 C 46.078125 -14.457031 46.5625 -14.6875 46.96875 -14.6875 C 47.375 -14.6875 47.78125 -14.40625 48.1875 -13.84375 Z M 51.5625 -9.03125 "/></g></g></g></g></g></svg>