<!--
 Copyright (c) 2023 - 2026 Chair for Design Automation, TUM
 Copyright (c) 2025 - 2026 Munich Quantum Software Company GmbH
 All rights reserved.

 SPDX-License-Identifier: MIT

 Licensed under the MIT License
-->

<svg xmlns="http://www.w3.org/2000/svg" xmlns:xlink="http://www.w3.org/1999/xlink" width="962" zoomAndPan="magnify" viewBox="0 0 721.5 308.250004" height="411" preserveAspectRatio="xMidYMid meet" version="1.0"><defs><g/><clipPath id="1c94cc57d8"><path d="M 217.511719 222.664062 L 264.644531 222.664062 L 264.644531 269.800781 L 217.511719 269.800781 Z M 217.511719 222.664062 " clip-rule="nonzero"/></clipPath><clipPath id="70b8134d66"><path d="M 586.699219 222.664062 L 633.835938 222.664062 L 633.835938 269.800781 L 586.699219 269.800781 Z M 586.699219 222.664062 " clip-rule="nonzero"/></clipPath><clipPath id="d580cee698"><path d="M 1 0 L 185 0 L 185 187.792969 L 1 187.792969 Z M 1 0 " clip-rule="nonzero"/></clipPath></defs><g clip-path="url(#1c94cc57d8)"><path fill="#1b8bff" d="M 262.621094 237.039062 C 261.386719 234.179688 259.703125 231.679688 257.582031 229.558594 C 255.460938 227.4375 252.980469 225.757812 250.128906 224.519531 C 247.285156 223.28125 244.230469 222.664062 240.976562 222.664062 C 238.734375 222.664062 236.578125 222.972656 234.519531 223.574219 L 238.175781 231.054688 C 239.085938 230.863281 240.03125 230.761719 241 230.761719 C 243.054688 230.761719 244.976562 231.183594 246.773438 232.03125 C 248.558594 232.875 250.121094 234 251.460938 235.398438 C 252.800781 236.796875 253.855469 238.4375 254.636719 240.308594 C 255.417969 242.179688 255.8125 244.128906 255.8125 246.148438 C 255.8125 248.207031 255.417969 250.167969 254.636719 252.019531 C 253.855469 253.875 252.800781 255.515625 251.460938 256.933594 C 250.121094 258.359375 248.558594 259.492188 246.773438 260.332031 C 244.984375 261.171875 243.0625 261.601562 241 261.601562 C 238.941406 261.601562 237.027344 261.183594 235.230469 260.332031 C 233.445312 259.492188 231.882812 258.359375 230.542969 256.933594 C 229.203125 255.507812 228.148438 253.875 227.367188 252.019531 C 226.585938 250.167969 226.191406 248.207031 226.191406 246.148438 C 226.191406 244.128906 226.585938 242.179688 227.367188 240.308594 C 228.148438 238.4375 229.203125 236.796875 230.542969 235.398438 C 230.679688 235.253906 230.828125 235.125 230.972656 234.984375 L 227.179688 227.234375 C 226.207031 227.945312 225.289062 228.699219 224.429688 229.550781 C 222.308594 231.671875 220.628906 234.171875 219.390625 237.03125 C 218.152344 239.898438 217.535156 242.9375 217.535156 246.148438 C 217.535156 249.402344 218.152344 252.449219 219.390625 255.300781 C 220.628906 258.144531 222.308594 260.625 224.429688 262.753906 C 226.550781 264.875 229.03125 266.558594 231.882812 267.792969 C 234.726562 269.03125 237.757812 269.648438 240.96875 269.648438 C 244.222656 269.648438 247.269531 269.03125 250.121094 267.792969 C 252.960938 266.558594 255.445312 264.875 257.574219 262.753906 C 259.695312 260.632812 261.375 258.152344 262.613281 255.300781 C 263.851562 252.457031 264.46875 249.410156 264.46875 246.148438 C 264.476562 242.9375 263.859375 239.898438 262.621094 237.039062 Z M 262.621094 237.039062 " fill-opacity="1" fill-rule="nonzero"/></g><g fill="#1b8bff" fill-opacity="1"><g transform="translate(214.355941, 195.630969)"><g><path d="M 43.703125 -7.65625 C 43.960938 -7.257812 44.09375 -6.929688 44.09375 -6.671875 C 44.09375 -6.460938 44.023438 -6.25 43.890625 -6.03125 C 43.765625 -5.8125 43.550781 -5.570312 43.25 -5.3125 C 40.914062 -3.375 38.300781 -1.875 35.40625 -0.8125 C 32.507812 0.25 29.484375 0.78125 26.328125 0.78125 C 21.921875 0.78125 17.910156 -0.222656 14.296875 -2.234375 C 10.691406 -4.242188 7.847656 -7.019531 5.765625 -10.5625 C 3.691406 -14.113281 2.65625 -18.09375 2.65625 -22.5 C 2.65625 -27 3.703125 -31.039062 5.796875 -34.625 C 7.898438 -38.21875 10.773438 -41.039062 14.421875 -43.09375 C 18.078125 -45.144531 22.195312 -46.171875 26.78125 -46.171875 C 29.9375 -46.171875 32.914062 -45.628906 35.71875 -44.546875 C 38.53125 -43.460938 41.082031 -41.992188 43.375 -40.140625 C 43.59375 -39.921875 43.765625 -39.710938 43.890625 -39.515625 C 44.023438 -39.328125 44.09375 -39.144531 44.09375 -38.96875 C 44.09375 -38.664062 43.941406 -38.300781 43.640625 -37.875 L 40.78125 -33.84375 C 40.394531 -33.320312 40.007812 -33.0625 39.625 -33.0625 C 39.320312 -33.0625 38.929688 -33.238281 38.453125 -33.59375 C 36.722656 -34.882812 34.863281 -35.894531 32.875 -36.625 C 30.882812 -37.363281 28.8125 -37.734375 26.65625 -37.734375 C 23.925781 -37.734375 21.445312 -37.09375 19.21875 -35.8125 C 17 -34.539062 15.25 -32.757812 13.96875 -30.46875 C 12.695312 -28.1875 12.0625 -25.570312 12.0625 -22.625 C 12.0625 -19.769531 12.695312 -17.207031 13.96875 -14.9375 C 15.25 -12.675781 16.988281 -10.894531 19.1875 -9.59375 C 21.394531 -8.300781 23.882812 -7.65625 26.65625 -7.65625 C 31.101562 -7.65625 35.078125 -9.054688 38.578125 -11.859375 C 39.054688 -12.253906 39.46875 -12.453125 39.8125 -12.453125 C 40.15625 -12.453125 40.5 -12.210938 40.84375 -11.734375 Z M 43.703125 -7.65625 "/></g></g></g><g fill="#1b8bff" fill-opacity="1"><g transform="translate(260.129094, 195.630969)"><g><path d="M 5.25 -43.828125 C 5.25 -44.390625 5.367188 -44.789062 5.609375 -45.03125 C 5.847656 -45.269531 6.25 -45.390625 6.8125 -45.390625 L 12.703125 -45.390625 C 13.265625 -45.390625 13.675781 -45.269531 13.9375 -45.03125 C 14.195312 -44.789062 14.328125 -44.390625 14.328125 -43.828125 L 14.328125 -1.5625 C 14.328125 -1 14.195312 -0.597656 13.9375 -0.359375 C 13.675781 -0.117188 13.265625 0 12.703125 0 L 6.8125 0 C 6.25 0 5.847656 -0.117188 5.609375 -0.359375 C 5.367188 -0.597656 5.25 -1 5.25 -1.5625 Z M 5.25 -43.828125 "/></g></g></g><g fill="#1b8bff" fill-opacity="1"><g transform="translate(279.709113, 195.630969)"><g><path d="M 5.25 -43.828125 C 5.25 -44.390625 5.367188 -44.789062 5.609375 -45.03125 C 5.847656 -45.269531 6.25 -45.390625 6.8125 -45.390625 L 21.265625 -45.390625 C 27.492188 -45.390625 32.160156 -44.164062 35.265625 -41.71875 C 38.378906 -39.28125 39.9375 -35.6875 39.9375 -30.9375 C 39.9375 -27.726562 39.203125 -25.054688 37.734375 -22.921875 C 36.265625 -20.785156 34.234375 -19.15625 31.640625 -18.03125 L 42.21875 -2.015625 C 42.519531 -1.578125 42.671875 -1.1875 42.671875 -0.84375 C 42.671875 -0.28125 42.191406 0 41.234375 0 L 34.75 0 C 33.9375 0 33.300781 -0.128906 32.84375 -0.390625 C 32.382812 -0.648438 31.921875 -1.125 31.453125 -1.8125 L 23.15625 -14.90625 C 22.9375 -15.257812 22.707031 -15.5 22.46875 -15.625 C 22.226562 -15.757812 21.894531 -15.828125 21.46875 -15.828125 L 15.171875 -15.828125 C 14.828125 -15.828125 14.597656 -15.757812 14.484375 -15.625 C 14.378906 -15.5 14.328125 -15.257812 14.328125 -14.90625 L 14.328125 -1.5625 C 14.328125 -1 14.195312 -0.597656 13.9375 -0.359375 C 13.675781 -0.117188 13.265625 0 12.703125 0 L 6.8125 0 C 6.25 0 5.847656 -0.117188 5.609375 -0.359375 C 5.367188 -0.597656 5.25 -1 5.25 -1.5625 Z M 21.078125 -23.859375 C 24.273438 -23.859375 26.648438 -24.398438 28.203125 -25.484375 C 29.765625 -26.566406 30.546875 -28.226562 30.546875 -30.46875 C 30.546875 -32.757812 29.734375 -34.410156 28.109375 -35.421875 C 26.484375 -36.441406 24.070312 -36.953125 20.875 -36.953125 L 15.171875 -36.953125 C 14.867188 -36.953125 14.648438 -36.890625 14.515625 -36.765625 C 14.390625 -36.640625 14.328125 -36.425781 14.328125 -36.125 L 14.328125 -24.765625 C 14.328125 -24.421875 14.378906 -24.179688 14.484375 -24.046875 C 14.597656 -23.921875 14.828125 -23.859375 15.171875 -23.859375 Z M 21.078125 -23.859375 "/></g></g></g><g fill="#1b8bff" fill-opacity="1"><g transform="translate(322.759224, 195.630969)"><g><path d="M 43.703125 -7.65625 C 43.960938 -7.257812 44.09375 -6.929688 44.09375 -6.671875 C 44.09375 -6.460938 44.023438 -6.25 43.890625 -6.03125 C 43.765625 -5.8125 43.550781 -5.570312 43.25 -5.3125 C 40.914062 -3.375 38.300781 -1.875 35.40625 -0.8125 C 32.507812 0.25 29.484375 0.78125 26.328125 0.78125 C 21.921875 0.78125 17.910156 -0.222656 14.296875 -2.234375 C 10.691406 -4.242188 7.847656 -7.019531 5.765625 -10.5625 C 3.691406 -14.113281 2.65625 -18.09375 2.65625 -22.5 C 2.65625 -27 3.703125 -31.039062 5.796875 -34.625 C 7.898438 -38.21875 10.773438 -41.039062 14.421875 -43.09375 C 18.078125 -45.144531 22.195312 -46.171875 26.78125 -46.171875 C 29.9375 -46.171875 32.914062 -45.628906 35.71875 -44.546875 C 38.53125 -43.460938 41.082031 -41.992188 43.375 -40.140625 C 43.59375 -39.921875 43.765625 -39.710938 43.890625 -39.515625 C 44.023438 -39.328125 44.09375 -39.144531 44.09375 -38.96875 C 44.09375 -38.664062 43.941406 -38.300781 43.640625 -37.875 L 40.78125 -33.84375 C 40.394531 -33.320312 40.007812 -33.0625 39.625 -33.0625 C 39.320312 -33.0625 38.929688 -33.238281 38.453125 -33.59375 C 36.722656 -34.882812 34.863281 -35.894531 32.875 -36.625 C 30.882812 -37.363281 28.8125 -37.734375 26.65625 -37.734375 C 23.925781 -37.734375 21.445312 -37.09375 19.21875 -35.8125 C 17 -34.539062 15.25 -32.757812 13.96875 -30.46875 C 12.695312 -28.1875 12.0625 -25.570312 12.0625 -22.625 C 12.0625 -19.769531 12.695312 -17.207031 13.96875 -14.9375 C 15.25 -12.675781 16.988281 -10.894531 19.1875 -9.59375 C 21.394531 -8.300781 23.882812 -7.65625 26.65625 -7.65625 C 31.101562 -7.65625 35.078125 -9.054688 38.578125 -11.859375 C 39.054688 -12.253906 39.46875 -12.453125 39.8125 -12.453125 C 40.15625 -12.453125 40.5 -12.210938 40.84375 -11.734375 Z M 43.703125 -7.65625 "/></g></g></g><g fill="#1b8bff" fill-opacity="1"><g transform="translate(368.532378, 195.630969)"><g><path d="M 4.921875 -43.828125 C 4.921875 -44.390625 5.039062 -44.789062 5.28125 -45.03125 C 5.519531 -45.269531 5.921875 -45.390625 6.484375 -45.390625 L 12.390625 -45.390625 C 12.953125 -45.390625 13.359375 -45.269531 13.609375 -45.03125 C 13.867188 -44.789062 14 -44.390625 14 -43.828125 L 14 -19.96875 C 14 -16.039062 14.894531 -13.003906 16.6875 -10.859375 C 18.488281 -8.722656 21.117188 -7.65625 24.578125 -7.65625 C 27.992188 -7.65625 30.617188 -8.722656 32.453125 -10.859375 C 34.285156 -13.003906 35.203125 -16.019531 35.203125 -19.90625 L 35.203125 -43.828125 C 35.203125 -44.390625 35.320312 -44.789062 35.5625 -45.03125 C 35.800781 -45.269531 36.203125 -45.390625 36.765625 -45.390625 L 42.671875 -45.390625 C 43.234375 -45.390625 43.640625 -45.269531 43.890625 -45.03125 C 44.148438 -44.789062 44.28125 -44.390625 44.28125 -43.828125 L 44.28125 -19.453125 C 44.28125 -15.046875 43.425781 -11.328125 41.71875 -8.296875 C 40.019531 -5.273438 37.664062 -3.003906 34.65625 -1.484375 C 31.65625 0.0234375 28.1875 0.78125 24.25 0.78125 C 20.40625 0.78125 17.035156 0.046875 14.140625 -1.421875 C 11.242188 -2.890625 8.984375 -5.113281 7.359375 -8.09375 C 5.734375 -11.082031 4.921875 -14.828125 4.921875 -19.328125 Z M 4.921875 -43.828125 "/></g></g></g><g fill="#1b8bff" fill-opacity="1"><g transform="translate(417.741763, 195.630969)"><g><path d="M 5.25 -43.828125 C 5.25 -44.390625 5.367188 -44.789062 5.609375 -45.03125 C 5.847656 -45.269531 6.25 -45.390625 6.8125 -45.390625 L 12.703125 -45.390625 C 13.265625 -45.390625 13.675781 -45.269531 13.9375 -45.03125 C 14.195312 -44.789062 14.328125 -44.390625 14.328125 -43.828125 L 14.328125 -1.5625 C 14.328125 -1 14.195312 -0.597656 13.9375 -0.359375 C 13.675781 -0.117188 13.265625 0 12.703125 0 L 6.8125 0 C 6.25 0 5.847656 -0.117188 5.609375 -0.359375 C 5.367188 -0.597656 5.25 -1 5.25 -1.5625 Z M 5.25 -43.828125 "/></g></g></g><g fill="#1b8bff" fill-opacity="1"><g transform="translate(437.32177, 195.630969)"><g><path d="M 14.59375 -36.125 C 14.59375 -36.425781 14.515625 -36.640625 14.359375 -36.765625 C 14.210938 -36.890625 13.988281 -36.953125 13.6875 -36.953125 L 2.53125 -36.953125 C 1.96875 -36.953125 1.566406 -37.070312 1.328125 -37.3125 C 1.085938 -37.550781 0.96875 -37.953125 0.96875 -38.515625 L 0.96875 -43.828125 C 0.96875 -44.390625 1.085938 -44.789062 1.328125 -45.03125 C 1.566406 -45.269531 1.96875 -45.390625 2.53125 -45.390625 L 35.65625 -45.390625 C 36.21875 -45.390625 36.617188 -45.269531 36.859375 -45.03125 C 37.097656 -44.789062 37.21875 -44.390625 37.21875 -43.828125 L 37.21875 -38.515625 C 37.21875 -37.953125 37.097656 -37.550781 36.859375 -37.3125 C 36.617188 -37.070312 36.21875 -36.953125 35.65625 -36.953125 L 24.515625 -36.953125 C 24.210938 -36.953125 23.992188 -36.890625 23.859375 -36.765625 C 23.734375 -36.640625 23.671875 -36.425781 23.671875 -36.125 L 23.671875 -1.5625 C 23.671875 -1 23.539062 -0.597656 23.28125 -0.359375 C 23.019531 -0.117188 22.609375 0 22.046875 0 L 16.140625 0 C 15.578125 0 15.175781 -0.117188 14.9375 -0.359375 C 14.707031 -0.597656 14.59375 -1 14.59375 -1.5625 Z M 14.59375 -36.125 "/></g></g></g><g fill="#1b8bff" fill-opacity="1"><g transform="translate(475.517379, 195.630969)"><g/></g></g><g clip-path="url(#70b8134d66)"><path fill="#1b8bff" d="M 631.808594 237.039062 C 630.574219 234.179688 628.890625 231.679688 626.769531 229.558594 C 624.648438 227.4375 622.167969 225.757812 619.316406 224.519531 C 616.476562 223.28125 613.417969 222.664062 610.164062 222.664062 C 607.925781 222.664062 605.769531 222.972656 603.707031 223.574219 L 607.367188 231.054688 C 608.277344 230.863281 609.21875 230.761719 610.191406 230.761719 C 612.242188 230.761719 614.167969 231.183594 615.960938 232.03125 C 617.746094 232.875 619.308594 234 620.648438 235.398438 C 621.988281 236.796875 623.042969 238.4375 623.824219 240.308594 C 624.605469 242.179688 625 244.128906 625 246.148438 C 625 248.207031 624.605469 250.167969 623.824219 252.019531 C 623.042969 253.875 621.988281 255.515625 620.648438 256.933594 C 619.308594 258.359375 617.746094 259.492188 615.960938 260.332031 C 614.175781 261.171875 612.25 261.601562 610.191406 261.601562 C 608.128906 261.601562 606.214844 261.183594 604.421875 260.332031 C 602.636719 259.492188 601.070312 258.359375 599.734375 256.933594 C 598.394531 255.507812 597.335938 253.875 596.554688 252.019531 C 595.773438 250.167969 595.378906 248.207031 595.378906 246.148438 C 595.378906 244.128906 595.773438 242.179688 596.554688 240.308594 C 597.335938 238.4375 598.394531 236.796875 599.734375 235.398438 C 599.871094 235.253906 600.015625 235.125 600.160156 234.984375 L 596.367188 227.234375 C 595.398438 227.945312 594.476562 228.699219 593.621094 229.550781 C 591.5 231.671875 589.816406 234.171875 588.578125 237.03125 C 587.34375 239.898438 586.726562 242.9375 586.726562 246.148438 C 586.726562 249.402344 587.34375 252.449219 588.578125 255.300781 C 589.816406 258.144531 591.5 260.625 593.621094 262.753906 C 595.738281 264.875 598.222656 266.558594 601.070312 267.792969 C 603.914062 269.03125 606.945312 269.648438 610.15625 269.648438 C 613.410156 269.648438 616.457031 269.03125 619.308594 267.792969 C 622.152344 266.558594 624.632812 264.875 626.761719 262.753906 C 628.882812 260.632812 630.566406 258.152344 631.800781 255.300781 C 633.039062 252.457031 633.65625 249.410156 633.65625 246.148438 C 633.664062 242.9375 633.046875 239.898438 631.808594 237.039062 Z M 631.808594 237.039062 " fill-opacity="1" fill-rule="nonzero"/></g><path stroke-linecap="butt" transform="matrix(1.103184, 0, 0, 1.104399, 11.973687, 388.639385)" fill-opacity="1" fill="#1b8bff" fill-rule="nonzero" stroke-linejoin="miter" d="M 123.069686 -291.171106 C 108.470607 -295.75151 92.989848 -298.160201 77.278931 -298.160201 C 49.058059 -298.160201 21.548906 -290.421264 -1.42083 -276.191946 L -1.42083 -268.470693 C 21.180653 -283.471075 48.831442 -291.691044 77.278931 -291.691044 C 93.018175 -291.691044 108.530802 -289.172706 123.069686 -284.390693 Z M 123.069686 -291.171106 " stroke="#1b8bff" stroke-width="1" stroke-opacity="1" stroke-miterlimit="4"/><path stroke-linecap="butt" transform="matrix(1.103184, 0, 0, 1.104399, 11.973687, 388.639385)" fill-opacity="1" fill="#1b8bff" fill-rule="nonzero" stroke-linejoin="miter" d="M 123.250271 -249.452289 C 108.658274 -244.631369 93.099616 -242.091809 77.289554 -242.091809 C 48.838524 -242.091809 21.191276 -250.301167 -1.410208 -265.31216 L -1.410208 -257.590907 C 21.548906 -243.361589 49.058059 -235.622652 77.289554 -235.622652 C 93.499736 -235.622652 109.458515 -238.179897 124.468336 -243.050334 C 123.859304 -245.062882 123.459183 -247.202762 123.250271 -249.452289 Z M 123.250271 -249.452289 " stroke="#1b8bff" stroke-width="1" stroke-opacity="1" stroke-miterlimit="4"/><path fill="#ffffff" d="M 182.09375 133.632812 C 178.332031 133.632812 174.925781 133.046875 171.859375 131.886719 C 168.789062 130.726562 166.164062 129.082031 164.003906 126.960938 C 161.828125 124.839844 160.152344 122.277344 158.960938 119.253906 C 157.769531 116.238281 157.175781 112.871094 157.175781 109.160156 L 157.175781 74.515625 L 168.285156 74.515625 L 168.285156 109.105469 C 168.285156 112.007812 168.757812 114.414062 169.71875 116.328125 C 170.667969 118.226562 171.847656 119.738281 173.246094 120.84375 C 174.648438 121.957031 176.160156 122.722656 177.769531 123.140625 C 179.382812 123.558594 180.828125 123.78125 182.09375 123.78125 C 183.363281 123.78125 184.808594 123.570312 186.417969 123.140625 C 188.03125 122.722656 189.542969 121.949219 190.941406 120.84375 C 192.34375 119.738281 193.523438 118.226562 194.472656 116.328125 C 195.421875 114.425781 195.90625 112.019531 195.90625 109.105469 L 195.90625 74.515625 L 207.015625 74.515625 L 207.015625 109.160156 C 207.015625 112.871094 206.433594 116.226562 205.273438 119.253906 C 204.113281 122.269531 202.4375 124.839844 200.277344 126.960938 C 198.101562 129.082031 195.488281 130.726562 192.421875 131.886719 C 189.34375 133.046875 185.914062 133.632812 182.09375 133.632812 Z M 182.09375 133.632812 " fill-opacity="1" fill-rule="nonzero"/><path fill="#ffffff" d="M 410.609375 133.710938 C 406.847656 133.710938 403.4375 133.125 400.371094 131.964844 C 397.304688 130.804688 394.679688 129.160156 392.515625 127.039062 C 390.34375 124.917969 388.667969 122.34375 387.476562 119.332031 C 386.285156 116.316406 385.6875 112.945312 385.6875 109.234375 L 385.6875 74.589844 L 396.796875 74.589844 L 396.796875 109.179688 C 396.796875 112.085938 397.269531 114.492188 398.230469 116.402344 C 399.179688 118.304688 400.359375 119.816406 401.761719 120.921875 C 403.164062 122.035156 404.675781 122.796875 406.285156 123.21875 C 407.894531 123.636719 409.339844 123.847656 410.609375 123.847656 C 411.878906 123.847656 413.324219 123.636719 414.933594 123.21875 C 416.542969 122.796875 418.054688 122.023438 419.457031 120.921875 C 420.859375 119.804688 422.039062 118.304688 422.988281 116.402344 C 423.933594 114.503906 424.421875 112.097656 424.421875 109.179688 L 424.421875 74.589844 L 435.53125 74.589844 L 435.53125 109.234375 C 435.53125 112.945312 434.945312 116.304688 433.785156 119.332031 C 432.617188 122.34375 430.953125 124.917969 428.789062 127.039062 C 426.617188 129.160156 424 130.804688 420.933594 131.964844 C 417.867188 133.125 414.414062 133.710938 410.609375 133.710938 Z M 410.609375 133.710938 " fill-opacity="1" fill-rule="nonzero"/><path fill="#ffffff" d="M 208.339844 132.636719 L 238.214844 74.425781 L 239.363281 74.425781 L 268.980469 132.5625 L 256.890625 132.5625 L 238.765625 96.203125 L 220.585938 132.605469 C 220.597656 132.605469 208.339844 132.496094 208.339844 132.636719 Z M 208.339844 132.636719 " fill-opacity="1" fill-rule="nonzero"/><g clip-path="url(#d580cee698)"><path fill="#ffffff" d="M 167.84375 140.171875 C 166.871094 139.804688 165.945312 139.398438 165.050781 138.957031 C 150.28125 161.671875 124.707031 176.75 95.660156 176.75 C 50.023438 176.75 12.898438 139.574219 12.898438 93.894531 C 12.898438 48.21875 50.035156 11.042969 95.660156 11.042969 C 131.261719 11.042969 161.652344 33.683594 173.304688 65.324219 L 184.976562 65.324219 C 172.863281 27.488281 137.425781 0 95.660156 0 C 43.945312 0 1.867188 42.121094 1.867188 93.894531 C 1.867188 145.671875 43.945312 187.792969 95.660156 187.792969 C 129.714844 187.792969 159.578125 169.523438 176.015625 142.28125 C 175.675781 142.214844 175.34375 142.125 175.011719 142.046875 C 172.488281 141.648438 170.09375 141.03125 167.84375 140.171875 Z M 167.84375 140.171875 " fill-opacity="1" fill-rule="nonzero"/></g><path fill="#ffffff" d="M 274.253906 74.515625 L 274.253906 132.5625 L 285.363281 132.5625 L 285.363281 98.027344 L 323.5 132.5625 L 324.738281 132.5625 L 324.738281 74.515625 L 313.628906 74.515625 L 313.628906 109.632812 L 275.445312 74.515625 Z M 274.253906 74.515625 " fill-opacity="1" fill-rule="nonzero"/><path fill="#ffffff" d="M 350.363281 84.363281 L 350.363281 132.5625 L 361.472656 132.5625 L 361.472656 84.363281 L 378.066406 84.363281 L 378.066406 74.515625 L 333.695312 74.515625 L 333.695312 84.363281 Z M 350.363281 84.363281 " fill-opacity="1" fill-rule="nonzero"/><path fill="#ffffff" d="M 505.152344 74.589844 L 504.433594 74.589844 L 475.863281 108.121094 L 447.367188 74.589844 L 446.648438 74.589844 L 446.648438 132.5625 L 457.757812 132.5625 L 457.757812 103.273438 L 475.863281 125.128906 L 494.03125 103.273438 L 494.03125 132.5625 L 505.152344 132.5625 Z M 505.152344 74.589844 " fill-opacity="1" fill-rule="nonzero"/><path fill="#ffffff" d="M 207.015625 168.277344 C 204.710938 168.5625 202.359375 168.773438 200.03125 168.90625 C 172.234375 170.507812 145.46875 161.164062 124.6875 142.609375 C 103.902344 124.058594 91.566406 98.511719 89.980469 70.671875 C 88.789062 49.785156 93.773438 29.289062 104.421875 11.386719 L 94.945312 5.730469 C 83.171875 25.535156 77.644531 48.195312 78.96875 71.289062 C 80.734375 102.070312 94.359375 130.320312 117.347656 150.839844 C 138.652344 169.855469 165.625 180.117188 193.933594 180.117188 C 196.171875 180.117188 198.421875 180.050781 200.671875 179.917969 C 202.792969 179.796875 204.910156 179.597656 207.015625 179.367188 Z M 207.015625 168.277344 " fill-opacity="1" fill-rule="nonzero"/><g fill="#1b8bff" fill-opacity="1"><g transform="translate(215.265461, 269.50479)"><g/></g></g><g fill="#1b8bff" fill-opacity="1"><g transform="translate(233.094947, 269.50479)"><g/></g></g><g fill="#1b8bff" fill-opacity="1"><g transform="translate(250.924434, 269.50479)"><g/></g></g><g fill="#1b8bff" fill-opacity="1"><g transform="translate(268.760302, 269.50479)"><g><path d="M 5.25 -43.828125 C 5.25 -44.390625 5.367188 -44.789062 5.609375 -45.03125 C 5.847656 -45.269531 6.25 -45.390625 6.8125 -45.390625 L 20.8125 -45.390625 C 33.65625 -45.390625 40.078125 -40.160156 40.078125 -29.703125 C 40.078125 -24.421875 38.390625 -20.394531 35.015625 -17.625 C 31.640625 -14.863281 26.734375 -13.484375 20.296875 -13.484375 L 15.171875 -13.484375 C 14.867188 -13.484375 14.648438 -13.414062 14.515625 -13.28125 C 14.390625 -13.15625 14.328125 -12.941406 14.328125 -12.640625 L 14.328125 -1.5625 C 14.328125 -1 14.195312 -0.597656 13.9375 -0.359375 C 13.675781 -0.117188 13.265625 0 12.703125 0 L 6.8125 0 C 6.25 0 5.847656 -0.117188 5.609375 -0.359375 C 5.367188 -0.597656 5.25 -1 5.25 -1.5625 Z M 20.359375 -21.921875 C 23.691406 -21.921875 26.242188 -22.546875 28.015625 -23.796875 C 29.785156 -25.046875 30.671875 -26.96875 30.671875 -29.5625 C 30.671875 -32.15625 29.804688 -34.035156 28.078125 -35.203125 C 26.347656 -36.367188 23.773438 -36.953125 20.359375 -36.953125 L 15.171875 -36.953125 C 14.867188 -36.953125 14.648438 -36.890625 14.515625 -36.765625 C 14.390625 -36.640625 14.328125 -36.425781 14.328125 -36.125 L 14.328125 -22.765625 C 14.328125 -22.460938 14.390625 -22.242188 14.515625 -22.109375 C 14.648438 -21.984375 14.867188 -21.921875 15.171875 -21.921875 Z M 20.359375 -21.921875 "/></g></g></g><g fill="#1b8bff" fill-opacity="1"><g transform="translate(311.032392, 269.50479)"><g><path d="M 14.59375 -36.125 C 14.59375 -36.425781 14.515625 -36.640625 14.359375 -36.765625 C 14.210938 -36.890625 13.988281 -36.953125 13.6875 -36.953125 L 2.53125 -36.953125 C 1.96875 -36.953125 1.566406 -37.070312 1.328125 -37.3125 C 1.085938 -37.550781 0.96875 -37.953125 0.96875 -38.515625 L 0.96875 -43.828125 C 0.96875 -44.390625 1.085938 -44.789062 1.328125 -45.03125 C 1.566406 -45.269531 1.96875 -45.390625 2.53125 -45.390625 L 35.65625 -45.390625 C 36.21875 -45.390625 36.617188 -45.269531 36.859375 -45.03125 C 37.097656 -44.789062 37.21875 -44.390625 37.21875 -43.828125 L 37.21875 -38.515625 C 37.21875 -37.953125 37.097656 -37.550781 36.859375 -37.3125 C 36.617188 -37.070312 36.21875 -36.953125 35.65625 -36.953125 L 24.515625 -36.953125 C 24.210938 -36.953125 23.992188 -36.890625 23.859375 -36.765625 C 23.734375 -36.640625 23.671875 -36.425781 23.671875 -36.125 L 23.671875 -1.5625 C 23.671875 -1 23.539062 -0.597656 23.28125 -0.359375 C 23.019531 -0.117188 22.609375 0 22.046875 0 L 16.140625 0 C 15.578125 0 15.175781 -0.117188 14.9375 -0.359375 C 14.707031 -0.597656 14.59375 -1 14.59375 -1.5625 Z M 14.59375 -36.125 "/></g></g></g><g fill="#1b8bff" fill-opacity="1"><g transform="translate(349.219907, 269.50479)"><g><path d="M 5.25 -43.828125 C 5.25 -44.390625 5.367188 -44.789062 5.609375 -45.03125 C 5.847656 -45.269531 6.25 -45.390625 6.8125 -45.390625 L 12.703125 -45.390625 C 13.265625 -45.390625 13.675781 -45.269531 13.9375 -45.03125 C 14.195312 -44.789062 14.328125 -44.390625 14.328125 -43.828125 L 14.328125 -1.5625 C 14.328125 -1 14.195312 -0.597656 13.9375 -0.359375 C 13.675781 -0.117188 13.265625 0 12.703125 0 L 6.8125 0 C 6.25 0 5.847656 -0.117188 5.609375 -0.359375 C 5.367188 -0.597656 5.25 -1 5.25 -1.5625 Z M 5.25 -43.828125 "/></g></g></g><g fill="#1b8bff" fill-opacity="1"><g transform="translate(368.799925, 269.50479)"><g><path d="M 5.25 -43.703125 C 5.25 -45.253906 5.722656 -46.03125 6.671875 -46.03125 C 7.066406 -46.03125 7.457031 -45.890625 7.84375 -45.609375 C 8.226562 -45.335938 8.726562 -44.832031 9.34375 -44.09375 L 27.75 -23.21875 L 45.96875 -44.09375 C 46.664062 -44.832031 47.1875 -45.335938 47.53125 -45.609375 C 47.875 -45.890625 48.238281 -46.03125 48.625 -46.03125 C 49.144531 -46.03125 49.515625 -45.835938 49.734375 -45.453125 C 49.953125 -45.066406 50.0625 -44.484375 50.0625 -43.703125 L 50.0625 -1.5625 C 50.0625 -1 49.941406 -0.597656 49.703125 -0.359375 C 49.460938 -0.117188 49.0625 0 48.5 0 L 42.609375 0 C 42.046875 0 41.632812 -0.117188 41.375 -0.359375 C 41.113281 -0.597656 40.984375 -1 40.984375 -1.5625 L 40.984375 -26 L 30.015625 -12.96875 C 29.410156 -12.28125 28.945312 -11.816406 28.625 -11.578125 C 28.300781 -11.335938 27.96875 -11.21875 27.625 -11.21875 C 27.320312 -11.21875 26.992188 -11.335938 26.640625 -11.578125 C 26.296875 -11.816406 25.84375 -12.28125 25.28125 -12.96875 L 14.328125 -26 L 14.328125 -1.5625 C 14.328125 -1 14.195312 -0.597656 13.9375 -0.359375 C 13.675781 -0.117188 13.265625 0 12.703125 0 L 6.8125 0 C 6.25 0 5.847656 -0.117188 5.609375 -0.359375 C 5.367188 -0.597656 5.25 -1 5.25 -1.5625 Z M 5.25 -43.703125 "/></g></g></g><g fill="#1b8bff" fill-opacity="1"><g transform="translate(424.10375, 269.50479)"><g><path d="M 5.25 -43.828125 C 5.25 -44.390625 5.367188 -44.789062 5.609375 -45.03125 C 5.847656 -45.269531 6.25 -45.390625 6.8125 -45.390625 L 12.703125 -45.390625 C 13.265625 -45.390625 13.675781 -45.269531 13.9375 -45.03125 C 14.195312 -44.789062 14.328125 -44.390625 14.328125 -43.828125 L 14.328125 -1.5625 C 14.328125 -1 14.195312 -0.597656 13.9375 -0.359375 C 13.675781 -0.117188 13.265625 0 12.703125 0 L 6.8125 0 C 6.25 0 5.847656 -0.117188 5.609375 -0.359375 C 5.367188 -0.597656 5.25 -1 5.25 -1.5625 Z M 5.25 -43.828125 "/></g></g></g><g fill="#1b8bff" fill-opacity="1"><g transform="translate(443.683769, 269.50479)"><g><path d="M 4.28125 -36.953125 C 3.71875 -37.003906 3.316406 -37.132812 3.078125 -37.34375 C 2.835938 -37.5625 2.71875 -37.953125 2.71875 -38.515625 L 2.71875 -43.828125 C 2.71875 -44.390625 2.835938 -44.789062 3.078125 -45.03125 C 3.316406 -45.269531 3.71875 -45.390625 4.28125 -45.390625 L 35.53125 -45.390625 C 36.695312 -45.390625 37.28125 -45.066406 37.28125 -44.421875 C 37.28125 -44.023438 37.128906 -43.59375 36.828125 -43.125 L 15.953125 -8.421875 L 35.203125 -8.421875 C 35.765625 -8.421875 36.175781 -8.300781 36.4375 -8.0625 C 36.695312 -7.832031 36.828125 -7.4375 36.828125 -6.875 L 36.828125 -1.5625 C 36.828125 -1 36.695312 -0.597656 36.4375 -0.359375 C 36.175781 -0.117188 35.765625 0 35.203125 0 L 3.234375 0 C 2.023438 0 1.421875 -0.320312 1.421875 -0.96875 C 1.421875 -1.363281 1.570312 -1.796875 1.875 -2.265625 L 22.765625 -36.953125 Z M 4.28125 -36.953125 "/></g></g></g><g fill="#1b8bff" fill-opacity="1"><g transform="translate(483.297649, 269.50479)"><g><path d="M 20.03125 -42.921875 C 20.6875 -44.265625 21.21875 -45.160156 21.625 -45.609375 C 22.03125 -46.066406 22.515625 -46.296875 23.078125 -46.296875 C 23.640625 -46.296875 24.125 -46.066406 24.53125 -45.609375 C 24.945312 -45.160156 25.476562 -44.265625 26.125 -42.921875 L 46.109375 -2.078125 C 46.316406 -1.554688 46.421875 -1.164062 46.421875 -0.90625 C 46.421875 -0.300781 45.945312 0 45 0 L 38.96875 0 C 38.1875 0 37.625 -0.101562 37.28125 -0.3125 C 36.9375 -0.53125 36.59375 -1.007812 36.25 -1.75 L 32.609375 -9.65625 C 32.441406 -10.007812 32.28125 -10.238281 32.125 -10.34375 C 31.976562 -10.445312 31.734375 -10.5 31.390625 -10.5 L 14.53125 -10.5 C 14.175781 -10.5 13.921875 -10.445312 13.765625 -10.34375 C 13.617188 -10.238281 13.460938 -10.007812 13.296875 -9.65625 L 9.65625 -1.75 C 9.351562 -1.007812 9.03125 -0.53125 8.6875 -0.3125 C 8.34375 -0.101562 7.800781 0 7.0625 0 L 1.234375 0 C 0.285156 0 -0.1875 -0.320312 -0.1875 -0.96875 C -0.1875 -1.1875 -0.0820312 -1.554688 0.125 -2.078125 Z M 27.75 -18.09375 C 28.226562 -18.09375 28.46875 -18.242188 28.46875 -18.546875 C 28.46875 -18.710938 28.398438 -18.882812 28.265625 -19.0625 L 22.953125 -30.546875 L 17.640625 -19.0625 C 17.503906 -18.882812 17.4375 -18.710938 17.4375 -18.546875 C 17.4375 -18.242188 17.675781 -18.09375 18.15625 -18.09375 Z M 27.75 -18.09375 "/></g></g></g><g fill="#1b8bff" fill-opacity="1"><g transform="translate(526.282768, 269.50479)"><g><path d="M 14.59375 -36.125 C 14.59375 -36.425781 14.515625 -36.640625 14.359375 -36.765625 C 14.210938 -36.890625 13.988281 -36.953125 13.6875 -36.953125 L 2.53125 -36.953125 C 1.96875 -36.953125 1.566406 -37.070312 1.328125 -37.3125 C 1.085938 -37.550781 0.96875 -37.953125 0.96875 -38.515625 L 0.96875 -43.828125 C 0.96875 -44.390625 1.085938 -44.789062 1.328125 -45.03125 C 1.566406 -45.269531 1.96875 -45.390625 2.53125 -45.390625 L 35.65625 -45.390625 C 36.21875 -45.390625 36.617188 -45.269531 36.859375 -45.03125 C 37.097656 -44.789062 37.21875 -44.390625 37.21875 -43.828125 L 37.21875 -38.515625 C 37.21875 -37.953125 37.097656 -37.550781 36.859375 -37.3125 C 36.617188 -37.070312 36.21875 -36.953125 35.65625 -36.953125 L 24.515625 -36.953125 C 24.210938 -36.953125 23.992188 -36.890625 23.859375 -36.765625 C 23.734375 -36.640625 23.671875 -36.425781 23.671875 -36.125 L 23.671875 -1.5625 C 23.671875 -1 23.539062 -0.597656 23.28125 -0.359375 C 23.019531 -0.117188 22.609375 0 22.046875 0 L 16.140625 0 C 15.578125 0 15.175781 -0.117188 14.9375 -0.359375 C 14.707031 -0.597656 14.59375 -1 14.59375 -1.5625 Z M 14.59375 -36.125 "/></g></g></g><g fill="#1b8bff" fill-opacity="1"><g transform="translate(564.470294, 269.50479)"><g><path d="M 5.25 -43.828125 C 5.25 -44.390625 5.367188 -44.789062 5.609375 -45.03125 C 5.847656 -45.269531 6.25 -45.390625 6.8125 -45.390625 L 12.703125 -45.390625 C 13.265625 -45.390625 13.675781 -45.269531 13.9375 -45.03125 C 14.195312 -44.789062 14.328125 -44.390625 14.328125 -43.828125 L 14.328125 -1.5625 C 14.328125 -1 14.195312 -0.597656 13.9375 -0.359375 C 13.675781 -0.117188 13.265625 0 12.703125 0 L 6.8125 0 C 6.25 0 5.847656 -0.117188 5.609375 -0.359375 C 5.367188 -0.597656 5.25 -1 5.25 -1.5625 Z M 5.25 -43.828125 "/></g></g></g><g fill="#1b8bff" fill-opacity="1"><g transform="translate(584.059552, 269.50479)"><g/></g></g><g fill="#1b8bff" fill-opacity="1"><g transform="translate(601.889038, 269.50479)"><g/></g></g><g fill="#1b8bff" fill-opacity="1"><g transform="translate(619.718524, 269.50479)"><g/></g></g><g fill="#1b8bff" fill-opacity="1"><g transform="translate(637.554393, 269.50479)"><g><path d="M 5.25 -43.828125 C 5.25 -45.390625 5.722656 -46.171875 6.671875 -46.171875 C 7.066406 -46.171875 7.488281 -46.019531 7.9375 -45.71875 C 8.394531 -45.414062 9.015625 -44.875 9.796875 -44.09375 L 34.5 -17.96875 L 34.5 -43.828125 C 34.5 -44.390625 34.613281 -44.789062 34.84375 -45.03125 C 35.082031 -45.269531 35.484375 -45.390625 36.046875 -45.390625 L 41.953125 -45.390625 C 42.515625 -45.390625 42.925781 -45.269531 43.1875 -45.03125 C 43.445312 -44.789062 43.578125 -44.390625 43.578125 -43.828125 L 43.578125 -1.5625 C 43.578125 -0.78125 43.457031 -0.195312 43.21875 0.1875 C 42.976562 0.582031 42.597656 0.78125 42.078125 0.78125 C 41.691406 0.78125 41.28125 0.628906 40.84375 0.328125 C 40.414062 0.0234375 39.8125 -0.515625 39.03125 -1.296875 L 14.328125 -27.421875 L 14.328125 -1.5625 C 14.328125 -1 14.195312 -0.597656 13.9375 -0.359375 C 13.675781 -0.117188 13.265625 0 12.703125 0 L 6.8125 0 C 6.25 0 5.847656 -0.117188 5.609375 -0.359375 C 5.367188 -0.597656 5.25 -1 5.25 -1.5625 Z M 5.25 -43.828125 "/></g></g></g><path stroke-linecap="butt" transform="matrix(0.74818, -0.000000000000000649, 0.000000000000000649, 0.74818, 482.769034, 168.696504)" fill="none" stroke-linejoin="miter" d="M 0.000664195 7.500993 L 261.9072 7.500993 " stroke="#ffffff" stroke-width="15" stroke-opacity="1" stroke-miterlimit="4"/><path stroke-linecap="round" transform="matrix(0.74818, -0.000000000000000649, 0.000000000000000649, 0.74818, 482.769034, 168.696504)" fill="none" stroke-linejoin="round" d="M 231.907301 -15.001542 L 261.9072 7.500993 L 231.907301 29.998307 " stroke="#ffffff" stroke-width="15" stroke-opacity="1" stroke-miterlimit="4"/></svg>
