<svg xmlns="http://www.w3.org/2000/svg" xmlns:xlink="http://www.w3.org/1999/xlink" width="962" zoomAndPan="magnify" viewBox="0 0 721.5 308.250004" height="411" preserveAspectRatio="xMidYMid meet" version="1.0"><defs><g/><clipPath id="a48c7e857c"><path d="M 217.511719 222.664062 L 264.644531 222.664062 L 264.644531 269.800781 L 217.511719 269.800781 Z M 217.511719 222.664062 " clip-rule="nonzero"/></clipPath><clipPath id="f0fd83bd4a"><path d="M 586.699219 222.664062 L 633.835938 222.664062 L 633.835938 269.800781 L 586.699219 269.800781 Z M 586.699219 222.664062 " clip-rule="nonzero"/></clipPath><clipPath id="723c9a514e"><path d="M 1 0 L 186 0 L 186 187.792969 L 1 187.792969 Z M 1 0 " clip-rule="nonzero"/></clipPath></defs><g clip-path="url(#a48c7e857c)"><path fill="#3070b3" d="M 262.769531 237.085938 C 261.527344 234.214844 259.839844 231.710938 257.710938 229.582031 C 255.582031 227.453125 253.09375 225.765625 250.234375 224.527344 C 247.382812 223.285156 244.316406 222.664062 241.050781 222.664062 C 238.804688 222.664062 236.640625 222.976562 234.574219 223.578125 L 238.242188 231.082031 C 239.15625 230.890625 240.105469 230.789062 241.078125 230.789062 C 243.136719 230.789062 245.066406 231.210938 246.867188 232.0625 C 248.65625 232.90625 250.226562 234.035156 251.570312 235.4375 C 252.914062 236.84375 253.972656 238.488281 254.757812 240.367188 C 255.539062 242.246094 255.9375 244.199219 255.9375 246.222656 C 255.9375 248.292969 255.539062 250.253906 254.757812 252.117188 C 253.972656 253.976562 252.914062 255.621094 251.570312 257.042969 C 250.226562 258.472656 248.65625 259.609375 246.867188 260.453125 C 245.074219 261.296875 243.144531 261.730469 241.078125 261.730469 C 239.011719 261.730469 237.089844 261.308594 235.289062 260.453125 C 233.496094 259.609375 231.929688 258.472656 230.585938 257.042969 C 229.242188 255.613281 228.183594 253.976562 227.398438 252.117188 C 226.613281 250.253906 226.21875 248.292969 226.21875 246.222656 C 226.21875 244.199219 226.613281 242.246094 227.398438 240.367188 C 228.183594 238.488281 229.242188 236.84375 230.585938 235.4375 C 230.722656 235.292969 230.871094 235.164062 231.015625 235.027344 L 227.210938 227.246094 C 226.234375 227.960938 225.316406 228.71875 224.453125 229.574219 C 222.324219 231.699219 220.636719 234.207031 219.398438 237.074219 C 218.15625 239.953125 217.535156 243.003906 217.535156 246.222656 C 217.535156 249.488281 218.15625 252.546875 219.398438 255.40625 C 220.636719 258.257812 222.324219 260.746094 224.453125 262.882812 C 226.582031 265.011719 229.070312 266.699219 231.929688 267.941406 C 234.78125 269.179688 237.820312 269.800781 241.042969 269.800781 C 244.308594 269.800781 247.367188 269.179688 250.226562 267.941406 C 253.078125 266.699219 255.566406 265.011719 257.703125 262.882812 C 259.832031 260.753906 261.519531 258.265625 262.757812 255.40625 C 264 252.554688 264.621094 249.496094 264.621094 246.222656 C 264.628906 243.003906 264.007812 239.953125 262.769531 237.085938 Z M 262.769531 237.085938 " fill-opacity="1" fill-rule="nonzero"/></g><g fill="#3070b3" fill-opacity="1"><g transform="translate(214.355941, 195.630969)"><g><path d="M 43.703125 -7.65625 C 43.960938 -7.257812 44.09375 -6.929688 44.09375 -6.671875 C 44.09375 -6.460938 44.023438 -6.25 43.890625 -6.03125 C 43.765625 -5.8125 43.550781 -5.570312 43.25 -5.3125 C 40.914062 -3.375 38.300781 -1.875 35.40625 -0.8125 C 32.507812 0.25 29.484375 0.78125 26.328125 0.78125 C 21.921875 0.78125 17.910156 -0.222656 14.296875 -2.234375 C 10.691406 -4.242188 7.847656 -7.019531 5.765625 -10.5625 C 3.691406 -14.113281 2.65625 -18.09375 2.65625 -22.5 C 2.65625 -27 3.703125 -31.039062 5.796875 -34.625 C 7.898438 -38.21875 10.773438 -41.039062 14.421875 -43.09375 C 18.078125 -45.144531 22.195312 -46.171875 26.78125 -46.171875 C 29.9375 -46.171875 32.914062 -45.628906 35.71875 -44.546875 C 38.53125 -43.460938 41.082031 -41.992188 43.375 -40.140625 C 43.59375 -39.921875 43.765625 -39.710938 43.890625 -39.515625 C 44.023438 -39.328125 44.09375 -39.144531 44.09375 -38.96875 C 44.09375 -38.664062 43.941406 -38.300781 43.640625 -37.875 L 40.78125 -33.84375 C 40.394531 -33.320312 40.007812 -33.0625 39.625 -33.0625 C 39.320312 -33.0625 38.929688 -33.238281 38.453125 -33.59375 C 36.722656 -34.882812 34.863281 -35.894531 32.875 -36.625 C 30.882812 -37.363281 28.8125 -37.734375 26.65625 -37.734375 C 23.925781 -37.734375 21.445312 -37.09375 19.21875 -35.8125 C 17 -34.539062 15.25 -32.757812 13.96875 -30.46875 C 12.695312 -28.1875 12.0625 -25.570312 12.0625 -22.625 C 12.0625 -19.769531 12.695312 -17.207031 13.96875 -14.9375 C 15.25 -12.675781 16.988281 -10.894531 19.1875 -9.59375 C 21.394531 -8.300781 23.882812 -7.65625 26.65625 -7.65625 C 31.101562 -7.65625 35.078125 -9.054688 38.578125 -11.859375 C 39.054688 -12.253906 39.46875 -12.453125 39.8125 -12.453125 C 40.15625 -12.453125 40.5 -12.210938 40.84375 -11.734375 Z M 43.703125 -7.65625 "/></g></g></g><g fill="#3070b3" fill-opacity="1"><g transform="translate(260.129094, 195.630969)"><g><path d="M 5.25 -43.828125 C 5.25 -44.390625 5.367188 -44.789062 5.609375 -45.03125 C 5.847656 -45.269531 6.25 -45.390625 6.8125 -45.390625 L 12.703125 -45.390625 C 13.265625 -45.390625 13.675781 -45.269531 13.9375 -45.03125 C 14.195312 -44.789062 14.328125 -44.390625 14.328125 -43.828125 L 14.328125 -1.5625 C 14.328125 -1 14.195312 -0.597656 13.9375 -0.359375 C 13.675781 -0.117188 13.265625 0 12.703125 0 L 6.8125 0 C 6.25 0 5.847656 -0.117188 5.609375 -0.359375 C 5.367188 -0.597656 5.25 -1 5.25 -1.5625 Z M 5.25 -43.828125 "/></g></g></g><g fill="#3070b3" fill-opacity="1"><g transform="translate(279.709113, 195.630969)"><g><path d="M 5.25 -43.828125 C 5.25 -44.390625 5.367188 -44.789062 5.609375 -45.03125 C 5.847656 -45.269531 6.25 -45.390625 6.8125 -45.390625 L 21.265625 -45.390625 C 27.492188 -45.390625 32.160156 -44.164062 35.265625 -41.71875 C 38.378906 -39.28125 39.9375 -35.6875 39.9375 -30.9375 C 39.9375 -27.726562 39.203125 -25.054688 37.734375 -22.921875 C 36.265625 -20.785156 34.234375 -19.15625 31.640625 -18.03125 L 42.21875 -2.015625 C 42.519531 -1.578125 42.671875 -1.1875 42.671875 -0.84375 C 42.671875 -0.28125 42.191406 0 41.234375 0 L 34.75 0 C 33.9375 0 33.300781 -0.128906 32.84375 -0.390625 C 32.382812 -0.648438 31.921875 -1.125 31.453125 -1.8125 L 23.15625 -14.90625 C 22.9375 -15.257812 22.707031 -15.5 22.46875 -15.625 C 22.226562 -15.757812 21.894531 -15.828125 21.46875 -15.828125 L 15.171875 -15.828125 C 14.828125 -15.828125 14.597656 -15.757812 14.484375 -15.625 C 14.378906 -15.5 14.328125 -15.257812 14.328125 -14.90625 L 14.328125 -1.5625 C 14.328125 -1 14.195312 -0.597656 13.9375 -0.359375 C 13.675781 -0.117188 13.265625 0 12.703125 0 L 6.8125 0 C 6.25 0 5.847656 -0.117188 5.609375 -0.359375 C 5.367188 -0.597656 5.25 -1 5.25 -1.5625 Z M 21.078125 -23.859375 C 24.273438 -23.859375 26.648438 -24.398438 28.203125 -25.484375 C 29.765625 -26.566406 30.546875 -28.226562 30.546875 -30.46875 C 30.546875 -32.757812 29.734375 -34.410156 28.109375 -35.421875 C 26.484375 -36.441406 24.070312 -36.953125 20.875 -36.953125 L 15.171875 -36.953125 C 14.867188 -36.953125 14.648438 -36.890625 14.515625 -36.765625 C 14.390625 -36.640625 14.328125 -36.425781 14.328125 -36.125 L 14.328125 -24.765625 C 14.328125 -24.421875 14.378906 -24.179688 14.484375 -24.046875 C 14.597656 -23.921875 14.828125 -23.859375 15.171875 -23.859375 Z M 21.078125 -23.859375 "/></g></g></g><g fill="#3070b3" fill-opacity="1"><g transform="translate(322.759224, 195.630969)"><g><path d="M 43.703125 -7.65625 C 43.960938 -7.257812 44.09375 -6.929688 44.09375 -6.671875 C 44.09375 -6.460938 44.023438 -6.25 43.890625 -6.03125 C 43.765625 -5.8125 43.550781 -5.570312 43.25 -5.3125 C 40.914062 -3.375 38.300781 -1.875 35.40625 -0.8125 C 32.507812 0.25 29.484375 0.78125 26.328125 0.78125 C 21.921875 0.78125 17.910156 -0.222656 14.296875 -2.234375 C 10.691406 -4.242188 7.847656 -7.019531 5.765625 -10.5625 C 3.691406 -14.113281 2.65625 -18.09375 2.65625 -22.5 C 2.65625 -27 3.703125 -31.039062 5.796875 -34.625 C 7.898438 -38.21875 10.773438 -41.039062 14.421875 -43.09375 C 18.078125 -45.144531 22.195312 -46.171875 26.78125 -46.171875 C 29.9375 -46.171875 32.914062 -45.628906 35.71875 -44.546875 C 38.53125 -43.460938 41.082031 -41.992188 43.375 -40.140625 C 43.59375 -39.921875 43.765625 -39.710938 43.890625 -39.515625 C 44.023438 -39.328125 44.09375 -39.144531 44.09375 -38.96875 C 44.09375 -38.664062 43.941406 -38.300781 43.640625 -37.875 L 40.78125 -33.84375 C 40.394531 -33.320312 40.007812 -33.0625 39.625 -33.0625 C 39.320312 -33.0625 38.929688 -33.238281 38.453125 -33.59375 C 36.722656 -34.882812 34.863281 -35.894531 32.875 -36.625 C 30.882812 -37.363281 28.8125 -37.734375 26.65625 -37.734375 C 23.925781 -37.734375 21.445312 -37.09375 19.21875 -35.8125 C 17 -34.539062 15.25 -32.757812 13.96875 -30.46875 C 12.695312 -28.1875 12.0625 -25.570312 12.0625 -22.625 C 12.0625 -19.769531 12.695312 -17.207031 13.96875 -14.9375 C 15.25 -12.675781 16.988281 -10.894531 19.1875 -9.59375 C 21.394531 -8.300781 23.882812 -7.65625 26.65625 -7.65625 C 31.101562 -7.65625 35.078125 -9.054688 38.578125 -11.859375 C 39.054688 -12.253906 39.46875 -12.453125 39.8125 -12.453125 C 40.15625 -12.453125 40.5 -12.210938 40.84375 -11.734375 Z M 43.703125 -7.65625 "/></g></g></g><g fill="#3070b3" fill-opacity="1"><g transform="translate(368.532378, 195.630969)"><g><path d="M 4.921875 -43.828125 C 4.921875 -44.390625 5.039062 -44.789062 5.28125 -45.03125 C 5.519531 -45.269531 5.921875 -45.390625 6.484375 -45.390625 L 12.390625 -45.390625 C 12.953125 -45.390625 13.359375 -45.269531 13.609375 -45.03125 C 13.867188 -44.789062 14 -44.390625 14 -43.828125 L 14 -19.96875 C 14 -16.039062 14.894531 -13.003906 16.6875 -10.859375 C 18.488281 -8.722656 21.117188 -7.65625 24.578125 -7.65625 C 27.992188 -7.65625 30.617188 -8.722656 32.453125 -10.859375 C 34.285156 -13.003906 35.203125 -16.019531 35.203125 -19.90625 L 35.203125 -43.828125 C 35.203125 -44.390625 35.320312 -44.789062 35.5625 -45.03125 C 35.800781 -45.269531 36.203125 -45.390625 36.765625 -45.390625 L 42.671875 -45.390625 C 43.234375 -45.390625 43.640625 -45.269531 43.890625 -45.03125 C 44.148438 -44.789062 44.28125 -44.390625 44.28125 -43.828125 L 44.28125 -19.453125 C 44.28125 -15.046875 43.425781 -11.328125 41.71875 -8.296875 C 40.019531 -5.273438 37.664062 -3.003906 34.65625 -1.484375 C 31.65625 0.0234375 28.1875 0.78125 24.25 0.78125 C 20.40625 0.78125 17.035156 0.046875 14.140625 -1.421875 C 11.242188 -2.890625 8.984375 -5.113281 7.359375 -8.09375 C 5.734375 -11.082031 4.921875 -14.828125 4.921875 -19.328125 Z M 4.921875 -43.828125 "/></g></g></g><g fill="#3070b3" fill-opacity="1"><g transform="translate(417.741763, 195.630969)"><g><path d="M 5.25 -43.828125 C 5.25 -44.390625 5.367188 -44.789062 5.609375 -45.03125 C 5.847656 -45.269531 6.25 -45.390625 6.8125 -45.390625 L 12.703125 -45.390625 C 13.265625 -45.390625 13.675781 -45.269531 13.9375 -45.03125 C 14.195312 -44.789062 14.328125 -44.390625 14.328125 -43.828125 L 14.328125 -1.5625 C 14.328125 -1 14.195312 -0.597656 13.9375 -0.359375 C 13.675781 -0.117188 13.265625 0 12.703125 0 L 6.8125 0 C 6.25 0 5.847656 -0.117188 5.609375 -0.359375 C 5.367188 -0.597656 5.25 -1 5.25 -1.5625 Z M 5.25 -43.828125 "/></g></g></g><g fill="#3070b3" fill-opacity="1"><g transform="translate(437.32177, 195.630969)"><g><path d="M 14.59375 -36.125 C 14.59375 -36.425781 14.515625 -36.640625 14.359375 -36.765625 C 14.210938 -36.890625 13.988281 -36.953125 13.6875 -36.953125 L 2.53125 -36.953125 C 1.96875 -36.953125 1.566406 -37.070312 1.328125 -37.3125 C 1.085938 -37.550781 0.96875 -37.953125 0.96875 -38.515625 L 0.96875 -43.828125 C 0.96875 -44.390625 1.085938 -44.789062 1.328125 -45.03125 C 1.566406 -45.269531 1.96875 -45.390625 2.53125 -45.390625 L 35.65625 -45.390625 C 36.21875 -45.390625 36.617188 -45.269531 36.859375 -45.03125 C 37.097656 -44.789062 37.21875 -44.390625 37.21875 -43.828125 L 37.21875 -38.515625 C 37.21875 -37.953125 37.097656 -37.550781 36.859375 -37.3125 C 36.617188 -37.070312 36.21875 -36.953125 35.65625 -36.953125 L 24.515625 -36.953125 C 24.210938 -36.953125 23.992188 -36.890625 23.859375 -36.765625 C 23.734375 -36.640625 23.671875 -36.425781 23.671875 -36.125 L 23.671875 -1.5625 C 23.671875 -1 23.539062 -0.597656 23.28125 -0.359375 C 23.019531 -0.117188 22.609375 0 22.046875 0 L 16.140625 0 C 15.578125 0 15.175781 -0.117188 14.9375 -0.359375 C 14.707031 -0.597656 14.59375 -1 14.59375 -1.5625 Z M 14.59375 -36.125 "/></g></g></g><g fill="#3070b3" fill-opacity="1"><g transform="translate(475.517379, 195.630969)"><g/></g></g><g clip-path="url(#f0fd83bd4a)"><path fill="#3070b3" d="M 631.957031 237.085938 C 630.714844 234.214844 629.027344 231.710938 626.898438 229.582031 C 624.773438 227.453125 622.28125 225.765625 619.421875 224.527344 C 616.570312 223.285156 613.503906 222.664062 610.242188 222.664062 C 607.992188 222.664062 605.832031 222.976562 603.761719 223.578125 L 607.433594 231.082031 C 608.347656 230.890625 609.292969 230.789062 610.265625 230.789062 C 612.324219 230.789062 614.253906 231.210938 616.054688 232.0625 C 617.847656 232.90625 619.414062 234.035156 620.757812 235.4375 C 622.101562 236.84375 623.160156 238.488281 623.945312 240.367188 C 624.730469 242.246094 625.125 244.199219 625.125 246.222656 C 625.125 248.292969 624.730469 250.253906 623.945312 252.117188 C 623.160156 253.976562 622.101562 255.621094 620.757812 257.042969 C 619.414062 258.472656 617.847656 259.609375 616.054688 260.453125 C 614.261719 261.296875 612.332031 261.730469 610.265625 261.730469 C 608.199219 261.730469 606.277344 261.308594 604.476562 260.453125 C 602.6875 259.609375 601.117188 258.472656 599.773438 257.042969 C 598.429688 255.613281 597.371094 253.976562 596.585938 252.117188 C 595.804688 250.253906 595.40625 248.292969 595.40625 246.222656 C 595.40625 244.199219 595.804688 242.246094 596.585938 240.367188 C 597.371094 238.488281 598.429688 236.84375 599.773438 235.4375 C 599.914062 235.292969 600.058594 235.164062 600.207031 235.027344 L 596.398438 227.246094 C 595.425781 227.960938 594.503906 228.71875 593.640625 229.574219 C 591.515625 231.699219 589.824219 234.207031 588.585938 237.074219 C 587.34375 239.953125 586.726562 243.003906 586.726562 246.222656 C 586.726562 249.488281 587.34375 252.546875 588.585938 255.40625 C 589.824219 258.257812 591.515625 260.746094 593.640625 262.882812 C 595.769531 265.011719 598.257812 266.699219 601.117188 267.941406 C 603.96875 269.179688 607.011719 269.800781 610.230469 269.800781 C 613.496094 269.800781 616.554688 269.179688 619.414062 267.941406 C 622.265625 266.699219 624.753906 265.011719 626.890625 262.882812 C 629.019531 260.753906 630.707031 258.265625 631.949219 255.40625 C 633.1875 252.554688 633.808594 249.496094 633.808594 246.222656 C 633.816406 243.003906 633.195312 239.953125 631.957031 237.085938 Z M 631.957031 237.085938 " fill-opacity="1" fill-rule="nonzero"/></g><path stroke-linecap="butt" transform="matrix(1.103643, 0, 0, 1.103643, 11.978408, 388.373255)" fill-opacity="1" fill="#3070b3" fill-rule="nonzero" stroke-linejoin="miter" d="M 123.070875 -291.171954 C 108.470787 -295.751958 92.989385 -298.162299 77.28146 -298.162299 C 49.058163 -298.162299 21.549827 -290.421598 -1.420978 -276.18961 L -1.420978 -268.470145 C 21.178189 -283.470187 48.828101 -291.692248 77.28146 -291.692248 C 93.021239 -291.692248 108.530957 -289.172185 123.070875 -284.390435 Z M 123.070875 -291.171954 " stroke="#1b8bff" stroke-width="1" stroke-opacity="1" stroke-miterlimit="4"/><path stroke-linecap="butt" transform="matrix(1.103643, 0, 0, 1.103643, 11.978408, 388.373255)" fill-opacity="1" fill="#3070b3" fill-rule="nonzero" stroke-linejoin="miter" d="M 123.251385 -249.452867 C 108.658376 -244.632183 93.099107 -242.090883 77.288539 -242.090883 C 48.838719 -242.090883 21.188807 -250.302326 -1.410359 -265.312986 L -1.410359 -257.589982 C 21.549827 -243.361533 49.058163 -235.620832 77.288539 -235.620832 C 93.49906 -235.620832 109.458284 -238.179829 124.468944 -243.050065 C 123.860164 -245.060452 123.460211 -247.201799 123.251385 -249.452867 Z M 123.251385 -249.452867 " stroke="#1b8bff" stroke-width="1" stroke-opacity="1" stroke-miterlimit="4"/><path fill="#152f45" d="M 182.171875 133.539062 C 178.40625 133.539062 174.996094 132.957031 171.929688 131.796875 C 168.859375 130.636719 166.234375 128.992188 164.070312 126.875 C 161.898438 124.753906 160.21875 122.195312 159.027344 119.171875 C 157.835938 116.160156 157.238281 112.792969 157.238281 109.085938 L 157.238281 74.460938 L 168.351562 74.460938 L 168.351562 109.027344 C 168.351562 111.929688 168.828125 114.335938 169.789062 116.246094 C 170.738281 118.144531 171.917969 119.65625 173.320312 120.761719 C 174.722656 121.875 176.234375 122.636719 177.84375 123.054688 C 179.457031 123.476562 180.902344 123.695312 182.171875 123.695312 C 183.441406 123.695312 184.886719 123.488281 186.496094 123.054688 C 188.109375 122.636719 189.621094 121.863281 191.023438 120.761719 C 192.421875 119.65625 193.605469 118.144531 194.554688 116.246094 C 195.503906 114.347656 195.988281 111.941406 195.988281 109.027344 L 195.988281 74.460938 L 207.101562 74.460938 L 207.101562 109.085938 C 207.101562 112.792969 206.515625 116.148438 205.359375 119.171875 C 204.199219 122.183594 202.523438 124.753906 200.359375 126.875 C 198.183594 128.992188 195.570312 130.636719 192.5 131.796875 C 189.421875 132.957031 185.988281 133.539062 182.171875 133.539062 Z M 182.171875 133.539062 " fill-opacity="1" fill-rule="nonzero"/><path fill="#152f45" d="M 410.78125 133.617188 C 407.015625 133.617188 403.605469 133.03125 400.539062 131.875 C 397.46875 130.714844 394.84375 129.070312 392.679688 126.953125 C 390.503906 124.832031 388.828125 122.261719 387.636719 119.25 C 386.445312 116.234375 385.847656 112.871094 385.847656 109.160156 L 385.847656 74.539062 L 396.960938 74.539062 L 396.960938 109.105469 C 396.960938 112.007812 397.4375 114.414062 398.398438 116.324219 C 399.34375 118.222656 400.527344 119.734375 401.929688 120.835938 C 403.328125 121.953125 404.84375 122.714844 406.453125 123.132812 C 408.066406 123.554688 409.511719 123.761719 410.78125 123.761719 C 412.046875 123.761719 413.496094 123.554688 415.105469 123.132812 C 416.71875 122.714844 418.230469 121.941406 419.628906 120.835938 C 421.03125 119.722656 422.214844 118.222656 423.164062 116.324219 C 424.113281 114.425781 424.597656 112.019531 424.597656 109.105469 L 424.597656 74.539062 L 435.710938 74.539062 L 435.710938 109.160156 C 435.710938 112.871094 435.125 116.222656 433.96875 119.25 C 432.796875 122.261719 431.128906 124.832031 428.96875 126.953125 C 426.792969 129.070312 424.179688 130.714844 421.109375 131.875 C 418.042969 133.03125 414.585938 133.617188 410.78125 133.617188 Z M 410.78125 133.617188 " fill-opacity="1" fill-rule="nonzero"/><path fill="#152f45" d="M 208.425781 132.546875 L 238.3125 74.375 L 239.460938 74.375 L 269.09375 132.46875 L 256.996094 132.46875 L 238.863281 96.136719 L 220.675781 132.515625 C 220.6875 132.515625 208.425781 132.402344 208.425781 132.546875 Z M 208.425781 132.546875 " fill-opacity="1" fill-rule="nonzero"/><g clip-path="url(#723c9a514e)"><path fill="#152f45" d="M 167.910156 140.074219 C 166.941406 139.710938 166.011719 139.300781 165.121094 138.859375 C 150.34375 161.5625 124.757812 176.628906 95.699219 176.628906 C 50.042969 176.628906 12.90625 139.476562 12.90625 93.832031 C 12.90625 48.183594 50.054688 11.035156 95.699219 11.035156 C 131.316406 11.035156 161.71875 33.660156 173.375 65.28125 L 185.050781 65.28125 C 172.933594 27.46875 137.484375 0 95.699219 0 C 43.960938 0 1.867188 42.09375 1.867188 93.832031 C 1.867188 145.570312 43.960938 187.664062 95.699219 187.664062 C 129.769531 187.664062 159.644531 169.410156 176.089844 142.183594 C 175.746094 142.117188 175.417969 142.027344 175.085938 141.949219 C 172.558594 141.554688 170.164062 140.933594 167.910156 140.074219 Z M 167.910156 140.074219 " fill-opacity="1" fill-rule="nonzero"/></g><path fill="#152f45" d="M 274.371094 74.460938 L 274.371094 132.46875 L 285.484375 132.46875 L 285.484375 97.960938 L 323.636719 132.46875 L 324.871094 132.46875 L 324.871094 74.460938 L 313.757812 74.460938 L 313.757812 109.558594 L 275.5625 74.460938 Z M 274.371094 74.460938 " fill-opacity="1" fill-rule="nonzero"/><path fill="#152f45" d="M 350.507812 84.308594 L 350.507812 132.46875 L 361.625 132.46875 L 361.625 84.308594 L 378.222656 84.308594 L 378.222656 74.460938 L 333.832031 74.460938 L 333.832031 84.308594 Z M 350.507812 84.308594 " fill-opacity="1" fill-rule="nonzero"/><path fill="#152f45" d="M 505.363281 74.539062 L 504.644531 74.539062 L 476.058594 108.046875 L 447.554688 74.539062 L 446.835938 74.539062 L 446.835938 132.46875 L 457.949219 132.46875 L 457.949219 103.203125 L 476.058594 125.042969 L 494.238281 103.203125 L 494.238281 132.46875 L 505.363281 132.46875 Z M 505.363281 74.539062 " fill-opacity="1" fill-rule="nonzero"/><path fill="#152f45" d="M 207.101562 168.160156 C 204.796875 168.449219 202.445312 168.660156 200.117188 168.792969 C 172.304688 170.390625 145.53125 161.054688 124.738281 142.511719 C 103.945312 123.972656 91.605469 98.445312 90.015625 70.621094 C 88.824219 49.753906 93.8125 29.269531 104.464844 11.378906 L 94.984375 5.726562 C 83.207031 25.515625 77.679688 48.164062 79.003906 71.238281 C 80.769531 102 94.398438 130.230469 117.398438 150.734375 C 138.710938 169.742188 165.695312 179.992188 194.011719 179.992188 C 196.253906 179.992188 198.503906 179.925781 200.757812 179.792969 C 202.875 179.671875 204.996094 179.472656 207.101562 179.242188 Z M 207.101562 168.160156 " fill-opacity="1" fill-rule="nonzero"/><path stroke-linecap="butt" transform="matrix(0.74818, -0.000000000000000649, 0.000000000000000649, 0.74818, 482.769034, 168.696504)" fill="none" stroke-linejoin="miter" d="M 0.000664195 7.500993 L 261.9072 7.500993 " stroke="#152f45" stroke-width="15" stroke-opacity="1" stroke-miterlimit="4"/><path stroke-linecap="round" transform="matrix(0.74818, -0.000000000000000649, 0.000000000000000649, 0.74818, 482.769034, 168.696504)" fill="none" stroke-linejoin="round" d="M 231.907301 -15.001542 L 261.9072 7.500993 L 231.907301 29.998307 " stroke="#152f45" stroke-width="15" stroke-opacity="1" stroke-miterlimit="4"/><g fill="#3070b3" fill-opacity="1"><g transform="translate(215.265461, 269.50479)"><g/></g></g><g fill="#3070b3" fill-opacity="1"><g transform="translate(233.094947, 269.50479)"><g/></g></g><g fill="#3070b3" fill-opacity="1"><g transform="translate(250.924434, 269.50479)"><g/></g></g><g fill="#3070b3" fill-opacity="1"><g transform="translate(268.760302, 269.50479)"><g><path d="M 5.25 -43.828125 C 5.25 -44.390625 5.367188 -44.789062 5.609375 -45.03125 C 5.847656 -45.269531 6.25 -45.390625 6.8125 -45.390625 L 20.8125 -45.390625 C 33.65625 -45.390625 40.078125 -40.160156 40.078125 -29.703125 C 40.078125 -24.421875 38.390625 -20.394531 35.015625 -17.625 C 31.640625 -14.863281 26.734375 -13.484375 20.296875 -13.484375 L 15.171875 -13.484375 C 14.867188 -13.484375 14.648438 -13.414062 14.515625 -13.28125 C 14.390625 -13.15625 14.328125 -12.941406 14.328125 -12.640625 L 14.328125 -1.5625 C 14.328125 -1 14.195312 -0.597656 13.9375 -0.359375 C 13.675781 -0.117188 13.265625 0 12.703125 0 L 6.8125 0 C 6.25 0 5.847656 -0.117188 5.609375 -0.359375 C 5.367188 -0.597656 5.25 -1 5.25 -1.5625 Z M 20.359375 -21.921875 C 23.691406 -21.921875 26.242188 -22.546875 28.015625 -23.796875 C 29.785156 -25.046875 30.671875 -26.96875 30.671875 -29.5625 C 30.671875 -32.15625 29.804688 -34.035156 28.078125 -35.203125 C 26.347656 -36.367188 23.773438 -36.953125 20.359375 -36.953125 L 15.171875 -36.953125 C 14.867188 -36.953125 14.648438 -36.890625 14.515625 -36.765625 C 14.390625 -36.640625 14.328125 -36.425781 14.328125 -36.125 L 14.328125 -22.765625 C 14.328125 -22.460938 14.390625 -22.242188 14.515625 -22.109375 C 14.648438 -21.984375 14.867188 -21.921875 15.171875 -21.921875 Z M 20.359375 -21.921875 "/></g></g></g><g fill="#3070b3" fill-opacity="1"><g transform="translate(311.032392, 269.50479)"><g><path d="M 14.59375 -36.125 C 14.59375 -36.425781 14.515625 -36.640625 14.359375 -36.765625 C 14.210938 -36.890625 13.988281 -36.953125 13.6875 -36.953125 L 2.53125 -36.953125 C 1.96875 -36.953125 1.566406 -37.070312 1.328125 -37.3125 C 1.085938 -37.550781 0.96875 -37.953125 0.96875 -38.515625 L 0.96875 -43.828125 C 0.96875 -44.390625 1.085938 -44.789062 1.328125 -45.03125 C 1.566406 -45.269531 1.96875 -45.390625 2.53125 -45.390625 L 35.65625 -45.390625 C 36.21875 -45.390625 36.617188 -45.269531 36.859375 -45.03125 C 37.097656 -44.789062 37.21875 -44.390625 37.21875 -43.828125 L 37.21875 -38.515625 C 37.21875 -37.953125 37.097656 -37.550781 36.859375 -37.3125 C 36.617188 -37.070312 36.21875 -36.953125 35.65625 -36.953125 L 24.515625 -36.953125 C 24.210938 -36.953125 23.992188 -36.890625 23.859375 -36.765625 C 23.734375 -36.640625 23.671875 -36.425781 23.671875 -36.125 L 23.671875 -1.5625 C 23.671875 -1 23.539062 -0.597656 23.28125 -0.359375 C 23.019531 -0.117188 22.609375 0 22.046875 0 L 16.140625 0 C 15.578125 0 15.175781 -0.117188 14.9375 -0.359375 C 14.707031 -0.597656 14.59375 -1 14.59375 -1.5625 Z M 14.59375 -36.125 "/></g></g></g><g fill="#3070b3" fill-opacity="1"><g transform="translate(349.219907, 269.50479)"><g><path d="M 5.25 -43.828125 C 5.25 -44.390625 5.367188 -44.789062 5.609375 -45.03125 C 5.847656 -45.269531 6.25 -45.390625 6.8125 -45.390625 L 12.703125 -45.390625 C 13.265625 -45.390625 13.675781 -45.269531 13.9375 -45.03125 C 14.195312 -44.789062 14.328125 -44.390625 14.328125 -43.828125 L 14.328125 -1.5625 C 14.328125 -1 14.195312 -0.597656 13.9375 -0.359375 C 13.675781 -0.117188 13.265625 0 12.703125 0 L 6.8125 0 C 6.25 0 5.847656 -0.117188 5.609375 -0.359375 C 5.367188 -0.597656 5.25 -1 5.25 -1.5625 Z M 5.25 -43.828125 "/></g></g></g><g fill="#3070b3" fill-opacity="1"><g transform="translate(368.799925, 269.50479)"><g><path d="M 5.25 -43.703125 C 5.25 -45.253906 5.722656 -46.03125 6.671875 -46.03125 C 7.066406 -46.03125 7.457031 -45.890625 7.84375 -45.609375 C 8.226562 -45.335938 8.726562 -44.832031 9.34375 -44.09375 L 27.75 -23.21875 L 45.96875 -44.09375 C 46.664062 -44.832031 47.1875 -45.335938 47.53125 -45.609375 C 47.875 -45.890625 48.238281 -46.03125 48.625 -46.03125 C 49.144531 -46.03125 49.515625 -45.835938 49.734375 -45.453125 C 49.953125 -45.066406 50.0625 -44.484375 50.0625 -43.703125 L 50.0625 -1.5625 C 50.0625 -1 49.941406 -0.597656 49.703125 -0.359375 C 49.460938 -0.117188 49.0625 0 48.5 0 L 42.609375 0 C 42.046875 0 41.632812 -0.117188 41.375 -0.359375 C 41.113281 -0.597656 40.984375 -1 40.984375 -1.5625 L 40.984375 -26 L 30.015625 -12.96875 C 29.410156 -12.28125 28.945312 -11.816406 28.625 -11.578125 C 28.300781 -11.335938 27.96875 -11.21875 27.625 -11.21875 C 27.320312 -11.21875 26.992188 -11.335938 26.640625 -11.578125 C 26.296875 -11.816406 25.84375 -12.28125 25.28125 -12.96875 L 14.328125 -26 L 14.328125 -1.5625 C 14.328125 -1 14.195312 -0.597656 13.9375 -0.359375 C 13.675781 -0.117188 13.265625 0 12.703125 0 L 6.8125 0 C 6.25 0 5.847656 -0.117188 5.609375 -0.359375 C 5.367188 -0.597656 5.25 -1 5.25 -1.5625 Z M 5.25 -43.703125 "/></g></g></g><g fill="#3070b3" fill-opacity="1"><g transform="translate(424.10375, 269.50479)"><g><path d="M 5.25 -43.828125 C 5.25 -44.390625 5.367188 -44.789062 5.609375 -45.03125 C 5.847656 -45.269531 6.25 -45.390625 6.8125 -45.390625 L 12.703125 -45.390625 C 13.265625 -45.390625 13.675781 -45.269531 13.9375 -45.03125 C 14.195312 -44.789062 14.328125 -44.390625 14.328125 -43.828125 L 14.328125 -1.5625 C 14.328125 -1 14.195312 -0.597656 13.9375 -0.359375 C 13.675781 -0.117188 13.265625 0 12.703125 0 L 6.8125 0 C 6.25 0 5.847656 -0.117188 5.609375 -0.359375 C 5.367188 -0.597656 5.25 -1 5.25 -1.5625 Z M 5.25 -43.828125 "/></g></g></g><g fill="#3070b3" fill-opacity="1"><g transform="translate(443.683769, 269.50479)"><g><path d="M 4.28125 -36.953125 C 3.71875 -37.003906 3.316406 -37.132812 3.078125 -37.34375 C 2.835938 -37.5625 2.71875 -37.953125 2.71875 -38.515625 L 2.71875 -43.828125 C 2.71875 -44.390625 2.835938 -44.789062 3.078125 -45.03125 C 3.316406 -45.269531 3.71875 -45.390625 4.28125 -45.390625 L 35.53125 -45.390625 C 36.695312 -45.390625 37.28125 -45.066406 37.28125 -44.421875 C 37.28125 -44.023438 37.128906 -43.59375 36.828125 -43.125 L 15.953125 -8.421875 L 35.203125 -8.421875 C 35.765625 -8.421875 36.175781 -8.300781 36.4375 -8.0625 C 36.695312 -7.832031 36.828125 -7.4375 36.828125 -6.875 L 36.828125 -1.5625 C 36.828125 -1 36.695312 -0.597656 36.4375 -0.359375 C 36.175781 -0.117188 35.765625 0 35.203125 0 L 3.234375 0 C 2.023438 0 1.421875 -0.320312 1.421875 -0.96875 C 1.421875 -1.363281 1.570312 -1.796875 1.875 -2.265625 L 22.765625 -36.953125 Z M 4.28125 -36.953125 "/></g></g></g><g fill="#3070b3" fill-opacity="1"><g transform="translate(483.297649, 269.50479)"><g><path d="M 20.03125 -42.921875 C 20.6875 -44.265625 21.21875 -45.160156 21.625 -45.609375 C 22.03125 -46.066406 22.515625 -46.296875 23.078125 -46.296875 C 23.640625 -46.296875 24.125 -46.066406 24.53125 -45.609375 C 24.945312 -45.160156 25.476562 -44.265625 26.125 -42.921875 L 46.109375 -2.078125 C 46.316406 -1.554688 46.421875 -1.164062 46.421875 -0.90625 C 46.421875 -0.300781 45.945312 0 45 0 L 38.96875 0 C 38.1875 0 37.625 -0.101562 37.28125 -0.3125 C 36.9375 -0.53125 36.59375 -1.007812 36.25 -1.75 L 32.609375 -9.65625 C 32.441406 -10.007812 32.28125 -10.238281 32.125 -10.34375 C 31.976562 -10.445312 31.734375 -10.5 31.390625 -10.5 L 14.53125 -10.5 C 14.175781 -10.5 13.921875 -10.445312 13.765625 -10.34375 C 13.617188 -10.238281 13.460938 -10.007812 13.296875 -9.65625 L 9.65625 -1.75 C 9.351562 -1.007812 9.03125 -0.53125 8.6875 -0.3125 C 8.34375 -0.101562 7.800781 0 7.0625 0 L 1.234375 0 C 0.285156 0 -0.1875 -0.320312 -0.1875 -0.96875 C -0.1875 -1.1875 -0.0820312 -1.554688 0.125 -2.078125 Z M 27.75 -18.09375 C 28.226562 -18.09375 28.46875 -18.242188 28.46875 -18.546875 C 28.46875 -18.710938 28.398438 -18.882812 28.265625 -19.0625 L 22.953125 -30.546875 L 17.640625 -19.0625 C 17.503906 -18.882812 17.4375 -18.710938 17.4375 -18.546875 C 17.4375 -18.242188 17.675781 -18.09375 18.15625 -18.09375 Z M 27.75 -18.09375 "/></g></g></g><g fill="#3070b3" fill-opacity="1"><g transform="translate(526.282768, 269.50479)"><g><path d="M 14.59375 -36.125 C 14.59375 -36.425781 14.515625 -36.640625 14.359375 -36.765625 C 14.210938 -36.890625 13.988281 -36.953125 13.6875 -36.953125 L 2.53125 -36.953125 C 1.96875 -36.953125 1.566406 -37.070312 1.328125 -37.3125 C 1.085938 -37.550781 0.96875 -37.953125 0.96875 -38.515625 L 0.96875 -43.828125 C 0.96875 -44.390625 1.085938 -44.789062 1.328125 -45.03125 C 1.566406 -45.269531 1.96875 -45.390625 2.53125 -45.390625 L 35.65625 -45.390625 C 36.21875 -45.390625 36.617188 -45.269531 36.859375 -45.03125 C 37.097656 -44.789062 37.21875 -44.390625 37.21875 -43.828125 L 37.21875 -38.515625 C 37.21875 -37.953125 37.097656 -37.550781 36.859375 -37.3125 C 36.617188 -37.070312 36.21875 -36.953125 35.65625 -36.953125 L 24.515625 -36.953125 C 24.210938 -36.953125 23.992188 -36.890625 23.859375 -36.765625 C 23.734375 -36.640625 23.671875 -36.425781 23.671875 -36.125 L 23.671875 -1.5625 C 23.671875 -1 23.539062 -0.597656 23.28125 -0.359375 C 23.019531 -0.117188 22.609375 0 22.046875 0 L 16.140625 0 C 15.578125 0 15.175781 -0.117188 14.9375 -0.359375 C 14.707031 -0.597656 14.59375 -1 14.59375 -1.5625 Z M 14.59375 -36.125 "/></g></g></g><g fill="#3070b3" fill-opacity="1"><g transform="translate(564.470294, 269.50479)"><g><path d="M 5.25 -43.828125 C 5.25 -44.390625 5.367188 -44.789062 5.609375 -45.03125 C 5.847656 -45.269531 6.25 -45.390625 6.8125 -45.390625 L 12.703125 -45.390625 C 13.265625 -45.390625 13.675781 -45.269531 13.9375 -45.03125 C 14.195312 -44.789062 14.328125 -44.390625 14.328125 -43.828125 L 14.328125 -1.5625 C 14.328125 -1 14.195312 -0.597656 13.9375 -0.359375 C 13.675781 -0.117188 13.265625 0 12.703125 0 L 6.8125 0 C 6.25 0 5.847656 -0.117188 5.609375 -0.359375 C 5.367188 -0.597656 5.25 -1 5.25 -1.5625 Z M 5.25 -43.828125 "/></g></g></g><g fill="#3070b3" fill-opacity="1"><g transform="translate(584.059552, 269.50479)"><g/></g></g><g fill="#3070b3" fill-opacity="1"><g transform="translate(601.889038, 269.50479)"><g/></g></g><g fill="#3070b3" fill-opacity="1"><g transform="translate(619.718524, 269.50479)"><g/></g></g><g fill="#3070b3" fill-opacity="1"><g transform="translate(637.554393, 269.50479)"><g><path d="M 5.25 -43.828125 C 5.25 -45.390625 5.722656 -46.171875 6.671875 -46.171875 C 7.066406 -46.171875 7.488281 -46.019531 7.9375 -45.71875 C 8.394531 -45.414062 9.015625 -44.875 9.796875 -44.09375 L 34.5 -17.96875 L 34.5 -43.828125 C 34.5 -44.390625 34.613281 -44.789062 34.84375 -45.03125 C 35.082031 -45.269531 35.484375 -45.390625 36.046875 -45.390625 L 41.953125 -45.390625 C 42.515625 -45.390625 42.925781 -45.269531 43.1875 -45.03125 C 43.445312 -44.789062 43.578125 -44.390625 43.578125 -43.828125 L 43.578125 -1.5625 C 43.578125 -0.78125 43.457031 -0.195312 43.21875 0.1875 C 42.976562 0.582031 42.597656 0.78125 42.078125 0.78125 C 41.691406 0.78125 41.28125 0.628906 40.84375 0.328125 C 40.414062 0.0234375 39.8125 -0.515625 39.03125 -1.296875 L 14.328125 -27.421875 L 14.328125 -1.5625 C 14.328125 -1 14.195312 -0.597656 13.9375 -0.359375 C 13.675781 -0.117188 13.265625 0 12.703125 0 L 6.8125 0 C 6.25 0 5.847656 -0.117188 5.609375 -0.359375 C 5.367188 -0.597656 5.25 -1 5.25 -1.5625 Z M 5.25 -43.828125 "/></g></g></g></svg>