<?xml version="1.0" standalone="no"?>
<!DOCTYPE svg PUBLIC "-//W3C//DTD SVG 1.1//EN" "http://www.w3.org/Graphics/SVG/1.1/DTD/svg11.dtd">
<!--
 Copyright (c) 2023 - 2026 Chair for Design Automation, TUM
 Copyright (c) 2025 - 2026 Munich Quantum Software Company GmbH
 All rights reserved.

 SPDX-License-Identifier: MIT

 Licensed under the MIT License
-->

<svg xmlns:inkscape="http://www.inkscape.org/namespaces/inkscape" xmlns:sodipodi="http://sodipodi.sourceforge.net/DTD/sodipodi-0.dtd" xmlns="http://www.w3.org/2000/svg" xmlns:svg="http://www.w3.org/2000/svg" width="267.3243713378906" zoomAndPan="magnify" viewBox="0 0 267.32437 197.47979" height="197.47979736328125" preserveAspectRatio="xMidYMid" version="1.0" id="svg47" sodipodi:docname="PyQASM (6).svg" inkscape:version="1.4.3 (0d15f75, 2025-12-25)" inkscape:export-filename="qco.svg" inkscape:export-xdpi="96" inkscape:export-ydpi="96">
  <sodipodi:namedview id="namedview47" pagecolor="#ffffff" bordercolor="#000000" borderopacity="0.25" inkscape:showpageshadow="2" inkscape:pageopacity="0.0" inkscape:pagecheckerboard="0" inkscape:deskcolor="#d1d1d1" inkscape:zoom="1.8099124" inkscape:cx="196.14209" inkscape:cy="114.09392" inkscape:window-width="1920" inkscape:window-height="991" inkscape:window-x="-9" inkscape:window-y="-9" inkscape:window-maximized="1" inkscape:current-layer="svg47">
    <inkscape:page x="0" y="0" width="267.32437" height="197.4798" id="page2" margin="0" bleed="0"/>
  </sodipodi:namedview>
  <defs id="defs25">
    <clipPath id="1356ef22d6">
      <path d="M 0.214844,0.0976562 H 184.82812 V 189.10547 H 0.214844 Z m 0,0" clip-rule="nonzero" id="path2"/>
    </clipPath>
    <clipPath id="1aef642c0e">
      <path d="M 77,5 H 206.76172 V 182 H 77 Z m 0,0" clip-rule="nonzero" id="path3"/>
    </clipPath>
    <clipPath id="ceb25d3005">
      <rect x="0" width="55" y="0" height="107" id="rect3"/>
    </clipPath>
    <clipPath id="c25dcaf46b">
      <path d="m 212.19141,76.355469 h 55.3789 v 55.378901 h -55.3789 z m 0,0" clip-rule="nonzero" id="path4"/>
    </clipPath>
  </defs>
  <path stroke-linecap="butt" fill-opacity="1" fill="#3070b3" fill-rule="nonzero" stroke-linejoin="miter" d="M 146.81635,67.500014 C 130.60933,62.410166 113.42183,59.73439 95.976529,59.73439 c -31.332019,0 -61.878882,8.601561 -87.382779,24.417965 v 8.582031 c 25.09374,-16.67187 55.796854,-25.808595 87.382779,-25.808595 17.476551,0 34.699201,2.800791 50.839821,8.113282 z m 0,0" stroke="#1b8bff" stroke-width="1.11093" stroke-opacity="1" stroke-miterlimit="4" id="path25" inkscape:export-filename="path25.svg" inkscape:export-xdpi="96" inkscape:export-ydpi="96"/>
  <path stroke-linecap="butt" fill-opacity="1" fill="#3070b3" fill-rule="nonzero" stroke-linejoin="miter" d="m 147.01557,113.87501 c -16.19531,5.35937 -33.47264,8.1836 -51.027323,8.1836 -31.589831,0 -62.289038,-9.125 -87.3827787,-25.8125 v 8.58203 c 25.4921787,15.8164 56.0390417,24.42187 87.3827787,24.42187 17.999993,0 35.718733,-2.84766 52.386703,-8.25781 -0.67969,-2.23438 -1.1211,-4.61328 -1.35938,-7.11719 z m 0,0" stroke="#1b8bff" stroke-width="1.11093" stroke-opacity="1" stroke-miterlimit="4" id="path26"/>
  <g clip-path="url(#1356ef22d6)" id="g27" transform="translate(-0.214844,-0.0976562)">
    <path fill="#152f45" d="m 167.26172,141.17578 c -0.97656,-0.37109 -1.91016,-0.78125 -2.8086,-1.22656 -14.86718,22.86719 -40.60546,38.03906 -69.839839,38.03906 -45.929687,0 -83.292969,-37.41406 -83.292969,-83.386718 0,-45.972656 37.371094,-83.386718 83.292969,-83.386718 35.832029,0 66.421879,22.785156 78.144529,54.628906 h 11.75 C 172.31641,27.761719 136.65234,0.0976562 94.613281,0.0976562 42.5625,0.0976562 0.214844,42.492188 0.214844,94.601562 c 0,52.109378 42.347656,94.503908 94.398437,94.503908 34.277339,0 64.332029,-18.38672 80.874999,-45.8086 -0.33984,-0.0664 -0.67187,-0.15625 -1.00781,-0.23437 -2.54297,-0.39844 -4.95313,-1.01953 -7.21875,-1.88672 z m 0,0" fill-opacity="1" fill-rule="nonzero" id="path27"/>
  </g>
  <g clip-path="url(#1aef642c0e)" id="g28" transform="translate(-0.214844,-0.0976562)">
    <path fill="#152f45" d="m 195.45123,171.22207 c -2.32032,0.28906 5.10233,-1.8788 2.75858,-1.74603 -27.97656,1.61328 -53.46372,-7.17139 -74.38168,-25.84327 C 102.91016,124.95313 90.496094,99.246094 88.898438,71.226562 87.699219,50.203125 92.71875,29.578125 103.43359,11.558594 L 93.894531,5.867188 C 82.046875,25.796875 76.484375,48.605469 77.816406,71.847656 c 1.777344,30.980464 15.488282,59.410154 38.625004,80.062504 21.4414,19.14062 39.48801,25.88006 67.82785,28.82258 2.11655,0.21976 6.48719,-1.41315 8.75282,-1.54597 2.13281,-0.125 -1.50489,-1.1284 0.61621,-1.36278 z" fill-opacity="1" fill-rule="nonzero" id="path28" sodipodi:nodetypes="ccccccccsscc"/>
  </g>
  <g transform="translate(151.78516,45.902344)" id="g33">
    <g clip-path="url(#ceb25d3005)" id="g32">
      <g fill="#3070b3" fill-opacity="1" id="g31">
        <g transform="translate(0.247966,83.467029)" id="g30">
          <g id="g29">
            <path d="m 51.515625,-9.015625 c 0.3125,0.460937 0.46875,0.839844 0.46875,1.140625 0,0.261719 -0.07813,0.523438 -0.234375,0.78125 -0.15625,0.25 -0.414062,0.527344 -0.765625,0.828125 -2.75,2.292969 -5.835937,4.0625 -9.25,5.3125 -3.417969,1.25 -6.984375,1.875 -10.703125,1.875 -5.199219,0 -9.929688,-1.179687 -14.1875,-3.546875 -4.25,-2.375 -7.601562,-5.648438 -10.046875,-9.828125 -2.4375,-4.1875 -3.65625,-8.878906 -3.65625,-14.078125 0,-5.289062 1.234375,-10.050781 3.703125,-14.28125 2.46875,-4.226562 5.851562,-7.550781 10.15625,-9.96875 4.3125,-2.425781 9.164062,-3.640625 14.5625,-3.640625 3.726562,0 7.242188,0.636719 10.546875,1.90625 3.3125,1.273437 6.320313,3.007813 9.03125,5.203125 0.25,0.25 0.453125,0.492188 0.609375,0.71875 0.15625,0.230469 0.234375,0.449219 0.234375,0.65625 0,0.355469 -0.183594,0.789062 -0.546875,1.296875 l -3.359375,4.734375 c -0.460937,0.617188 -0.917969,0.921875 -1.375,0.921875 -0.355469,0 -0.8125,-0.203125 -1.375,-0.609375 C 43.285156,-41.125 41.09375,-42.320312 38.75,-43.1875 c -2.34375,-0.863281 -4.789062,-1.296875 -7.328125,-1.296875 -3.21875,0 -6.140625,0.75 -8.765625,2.25 -2.617188,1.5 -4.679688,3.605469 -6.1875,6.3125 -1.5,2.699219 -2.25,5.78125 -2.25,9.25 0,3.367187 0.75,6.386719 2.25,9.0625 1.507812,2.667969 3.5625,4.765625 6.15625,6.296875 2.601562,1.53125 5.535156,2.296875 8.796875,2.296875 5.238281,0 9.925781,-1.65625 14.0625,-4.96875 0.5625,-0.457031 1.046875,-0.6875 1.453125,-0.6875 0.40625,0 0.8125,0.28125 1.21875,0.84375 z m 0,0" id="path29"/>
          </g>
        </g>
      </g>
    </g>
  </g>
  <g clip-path="url(#c25dcaf46b)" id="g34" style="display:inline" transform="translate(-0.214844,-0.0976562)">
    <path fill="#3070b3" d="m 265.36328,93.296875 c -1.45703,-3.371094 -3.44141,-6.316406 -5.94141,-8.816406 -2.49609,-2.5 -5.42187,-4.480469 -8.78125,-5.9375 -3.35156,-1.457031 -6.95312,-2.1875 -10.78906,-2.1875 -2.64062,0 -5.18359,0.363281 -7.60937,1.074219 l 4.30859,8.8125 c 1.07422,-0.222657 2.1875,-0.34375 3.33203,-0.34375 2.41797,0 4.6836,0.496093 6.80078,1.5 2.10547,0.988281 3.94532,2.316406 5.52344,3.964843 1.57813,1.648438 2.82422,3.582031 3.74609,5.789063 0.92188,2.207031 1.38672,4.503906 1.38672,6.882816 0,2.42968 -0.46484,4.73437 -1.38672,6.92187 -0.92187,2.1836 -2.16796,4.11719 -3.74609,5.78906 -1.57812,1.67969 -3.41797,3.01563 -5.52344,4.00782 -2.10547,0.99218 -4.375,1.49609 -6.80078,1.49609 -2.42969,0 -4.6875,-0.49609 -6.80078,-1.49609 -2.10547,-0.99219 -3.94922,-2.32813 -5.52734,-4.00782 -1.57813,-1.67968 -2.82422,-3.60546 -3.74219,-5.78906 -0.92188,-2.1875 -1.38672,-4.49219 -1.38672,-6.92187 0,-2.37891 0.46484,-4.675785 1.38672,-6.882816 0.91797,-2.207032 2.16406,-4.140625 3.74219,-5.789063 0.16406,-0.171875 0.33593,-0.324219 0.50781,-0.484375 l -4.47266,-9.140625 c -1.14453,0.839844 -2.22656,1.730469 -3.24218,2.734375 -2.4961,2.5 -4.48047,5.445313 -5.9375,8.8125 -1.45704,3.382813 -2.1875,6.964844 -2.1875,10.750004 0,3.83593 0.73046,7.42578 2.1875,10.78515 1.45703,3.35157 3.4414,6.27735 5.9375,8.78516 2.5,2.5 5.42578,4.48437 8.78515,5.9414 3.35156,1.45704 6.92188,2.1875 10.70703,2.1875 3.83594,0 7.42969,-0.73046 10.78907,-2.1875 3.35156,-1.45703 6.27343,-3.4414 8.78515,-5.9414 2.5,-2.5 4.48438,-5.42188 5.94141,-8.78516 1.45703,-3.34765 2.18359,-6.9414 2.18359,-10.78515 0.0117,-3.78516 -0.71875,-7.367191 -2.17578,-10.738285 z m 0,0" fill-opacity="1" fill-rule="nonzero" id="path33"/>
  </g>
  <g id="g49" style="display:inline" transform="translate(-0.214844,-0.0976562)">
    <path stroke-linecap="butt" fill="none" stroke-linejoin="miter" d="M 0.00245676,7.499018 C 32.950034,7.501164 65.902829,7.498088 98.855626,7.500231" stroke="#152f45" stroke-width="15" stroke-opacity="1" stroke-miterlimit="4" id="path34" transform="matrix(0.74729841,3.0694273e-4,-3.0650751e-4,0.74835952,184.37367,169.49351)"/>
    <path stroke-linecap="round" transform="matrix(0.748348,3.06938e-4,-3.06938e-4,0.748348,184.26999,169.49359)" fill="none" stroke-linejoin="round" d="M 68.853244,-15.000596 98.850404,7.500233 68.850822,29.999572" stroke="#152f45" stroke-width="15" stroke-opacity="1" stroke-miterlimit="4" id="path47"/>
  </g>
</svg>
