<?xml version="1.0" encoding="UTF-8" standalone="no"?>
<!-- Created with Inkscape (http://www.inkscape.org/) -->

<svg
   width="174.58218mm"
   height="29.73126mm"
   viewBox="0 0 174.58218 29.73126"
   version="1.1"
   id="svg1"
   xml:space="preserve"
   inkscape:version="1.4.3 (0d15f75, 2025-12-25)"
   sodipodi:docname="qdmi_dark.svg"
   xmlns:inkscape="http://www.inkscape.org/namespaces/inkscape"
   xmlns:sodipodi="http://sodipodi.sourceforge.net/DTD/sodipodi-0.dtd"
   xmlns="http://www.w3.org/2000/svg"
   xmlns:svg="http://www.w3.org/2000/svg"><sodipodi:namedview
     id="namedview1"
     pagecolor="#ffffff"
     bordercolor="#000000"
     borderopacity="0.25"
     inkscape:showpageshadow="2"
     inkscape:pageopacity="0.0"
     inkscape:pagecheckerboard="0"
     inkscape:deskcolor="#d1d1d1"
     inkscape:document-units="mm"
     inkscape:export-bgcolor="#ffffff00"
     inkscape:zoom="0.68862935"
     inkscape:cx="396.43968"
     inkscape:cy="561.25984"
     inkscape:window-width="1920"
     inkscape:window-height="991"
     inkscape:window-x="-9"
     inkscape:window-y="-9"
     inkscape:window-maximized="1"
     inkscape:current-layer="layer1"
     showgrid="false"><inkscape:page
       x="-2.5881226e-22"
       y="0"
       width="174.58218"
       height="29.73126"
       id="page1"
       margin="0"
       bleed="0" /></sodipodi:namedview><defs
     id="defs1" /><g
     inkscape:label="Layer 1"
     inkscape:groupmode="layer"
     id="layer1"
     transform="translate(-17.557788,-151.44726)"><path
       style="fill:#3070b3;fill-opacity:1"
       d="m 45.274452,169.89958 -0.04092,-11.27857 -8.568522,-0.0412 -8.568522,-0.0412 v 5.82001 5.82001 h 6.299917 6.299918 l -0.0429,3.51273 -0.0429,3.51273 -8.402571,-0.008 c -4.621414,-0.005 -8.638656,-0.0514 -8.927205,-0.10413 -0.978281,-0.17871 -2.804884,-1.16438 -3.608713,-1.94733 -0.85821,-0.83592 -1.544217,-2.0372 -1.879867,-3.29186 -0.326305,-1.21972 -0.305981,-13.8779 0.02406,-14.98495 0.554769,-1.86085 1.660813,-3.26166 3.348365,-4.24072 1.850322,-1.07349 1.017849,-1.01995 15.859109,-1.01995 h 13.470513 l 1.225775,0.61201 c 1.51144,0.75464 2.65625,1.91534 3.365128,3.41184 l 0.510357,1.07741 0.04368,12.23505 0.04368,12.23505 h -5.183723 -5.183723 z m 14.545384,-0.5181 -4.6e-5,-7.89101 5.258155,0.0441 5.258155,0.0441 0.04245,4.26013 0.04245,4.26012 h 8.528668 8.528668 v -5.73891 -5.73892 l -13.829196,-0.0407 -13.829196,-0.0407 -7.4e-5,-3.54609 -7.5e-5,-3.54609 6.257088,0.0396 c 3.441399,0.0218 10.848223,0.0586 16.459608,0.0817 9.67661,0.0399 10.239497,0.058 10.919884,0.35009 1.666083,0.71528 3.252362,2.20159 3.930472,3.68275 0.63297,1.3826 0.72119,2.65928 0.66501,9.62433 l -0.0522,6.46712 -0.6718,1.37365 c -0.79975,1.63528 -1.889649,2.72614 -3.521069,3.52413 l -1.067808,0.52231 -16.459563,0.0797 -16.459564,0.0797 z m 42.280344,-2.39122 0.0443,-10.28222 0.38579,-0.87678 c 0.39205,-0.89103 1.20411,-2.01765 1.92572,-2.67166 0.2192,-0.19867 0.93656,-0.62932 1.59415,-0.95701 l 1.1956,-0.59581 21.32968,-0.0797 c 13.37109,-0.05 21.38618,-0.0232 21.48109,0.0717 0.20534,0.20539 0.20497,25.38264 -3.7e-4,25.50955 -0.0835,0.0516 -2.43285,0.0938 -5.22082,0.0938 l -5.06905,3e-5 -0.0797,-9.29061 -0.0797,-9.2906 h -4.06507 -4.06506 l -0.0797,9.2946 -0.0797,9.2946 -5.18096,-0.006 -5.18097,-0.006 -0.0797,-9.28879 -0.0797,-9.28878 h -4.14478 -4.14477 l -0.0797,9.29042 -0.0797,9.29042 -5.14553,0.0353 -5.14553,0.0353 z m 52.09306,6.73695 v -3.54527 l 6.89468,-0.0416 6.89467,-0.0416 v -5.73891 -5.73892 l -6.89467,-0.0416 -6.89468,-0.0415 v -3.54528 -3.54528 l 18.93046,0.0391 18.93046,0.0391 0.0429,3.5079 0.0429,3.50789 h -6.85787 -6.85786 v 5.81863 5.81862 h 6.85786 6.85787 l -0.0429,3.5079 -0.0429,3.50789 -18.93046,0.0391 -18.93046,0.0391 z"
       id="path1"
       inkscape:export-filename="qdmi_light.svg"
       inkscape:export-xdpi="96"
       inkscape:export-ydpi="96" /></g></svg>
